<svg width="160" height="140" viewBox="0 0 160 140" fill="none" xmlns="http://www.w3.org/2000/svg">
    <g clip-path="url(#clip0_30_914)">
        <path
            d="M15.3865 117.938L13.9774 113.089C11.4789 112.166 8.92273 111.366 6.32097 110.693L6.14311 112.946L5.42178 110.464C2.19513 109.659 0 109.305 0 109.305C0 109.305 2.96436 119.141 9.18394 126.661L16.4303 127.772L10.8008 128.48C11.5832 129.301 12.4239 130.079 13.3182 130.808C22.3648 138.134 32.4413 141.495 35.8243 138.315C39.2074 135.135 34.616 126.619 25.5694 119.294C22.7648 117.023 19.2417 115.201 15.715 113.766L15.3865 117.938Z"
            fill="#F2F2F2" />
        <path
            d="M28.7876 112.671L30.4541 107.886C28.8628 105.968 27.1487 104.131 25.3202 102.382L23.8328 104.23L24.686 101.78C22.4003 99.6369 20.731 98.3441 20.731 98.3441C20.731 98.3441 17.4412 108.101 18.309 117.343L23.8543 121.561L18.6147 119.629C18.798 120.685 19.0573 121.73 19.391 122.757C22.7949 133.108 29.4292 140.529 34.2092 139.333C38.9891 138.136 40.1048 128.776 36.7009 118.425C35.6458 115.216 33.7095 112.068 31.5406 109.249L28.7876 112.671Z"
            fill="#F2F2F2" />
        <path
            d="M111.647 33.1661H110.768V12.1589C110.768 10.5622 110.408 8.98106 109.707 7.50588C109.007 6.0307 107.98 4.69031 106.686 3.56125C105.392 2.4322 103.855 1.53658 102.164 0.925539C100.473 0.314498 98.661 0 96.8307 0H45.8121C42.1156 0 38.5706 1.28102 35.9568 3.56125C33.343 5.84149 31.8746 8.93414 31.8746 12.1589V127.408C31.8746 129.005 32.2351 130.586 32.9356 132.061C33.636 133.536 34.6626 134.877 35.9568 136.006C37.251 137.135 38.7875 138.03 40.4785 138.641C42.1694 139.252 43.9818 139.567 45.8121 139.567H96.8307C100.527 139.567 104.072 138.286 106.686 136.006C109.3 133.725 110.768 130.633 110.768 127.408V48.1194H111.647L111.647 33.1661Z"
            fill="#E6E6E6" />
        <path
            d="M97.3931 3.16211H90.734C91.0402 3.81717 91.1571 4.52789 91.0744 5.23166C90.9916 5.93542 90.7117 6.61062 90.2593 7.19778C89.8069 7.78493 89.196 8.26602 88.4803 8.59865C87.7646 8.93128 86.9661 9.10524 86.1551 9.10522H56.9271C56.1162 9.10518 55.3178 8.93117 54.6021 8.59852C53.8865 8.26586 53.2756 7.78477 52.8232 7.19762C52.3709 6.61048 52.091 5.9353 52.0083 5.23156C51.9255 4.52783 52.0424 3.81714 52.3487 3.16211H46.1287C43.3682 3.16211 40.7208 4.11876 38.7689 5.82162C36.8169 7.52447 35.7203 9.83404 35.7203 12.2422V127.324C35.7203 129.732 36.8169 132.042 38.7689 133.745C40.7208 135.448 43.3682 136.404 46.1287 136.404H97.3931C100.154 136.404 102.801 135.448 104.753 133.745C106.705 132.042 107.801 129.732 107.801 127.324V12.2421C107.801 9.83389 106.705 7.52437 104.753 5.82155C102.801 4.11874 100.153 3.16211 97.3931 3.16211Z"
            fill="white" />
        <path
            d="M65.2285 49.0049C65.2283 48.2005 65.4711 47.4102 65.9322 46.7136C66.3934 46.0171 67.0568 45.4388 67.8556 45.0369C67.0572 44.6346 66.1515 44.4228 65.2295 44.4227C64.3075 44.4226 63.4017 44.6343 62.6032 45.0364C61.8047 45.4385 61.1416 46.0169 60.6805 46.7135C60.2195 47.4101 59.9768 48.2002 59.9768 49.0046C59.9768 49.8089 60.2195 50.5991 60.6805 51.2957C61.1416 51.9922 61.8047 52.5706 62.6032 52.9728C63.4017 53.3749 64.3075 53.5865 65.2295 53.5864C66.1515 53.5864 67.0572 53.3745 67.8556 52.9722C67.0568 52.5705 66.3935 51.9923 65.9323 51.2958C65.4711 50.5994 65.2284 49.8092 65.2285 49.0049Z"
            fill="#CCCCCC" />
        <path
            d="M71.831 49.0049C71.8308 48.2004 72.0736 47.4102 72.5347 46.7136C72.9959 46.017 73.6593 45.4387 74.4581 45.0369C73.6597 44.6346 72.754 44.4228 71.832 44.4227C70.91 44.4226 70.0042 44.6343 69.2057 45.0364C68.4072 45.4385 67.7441 46.0169 67.2831 46.7135C66.8221 47.4101 66.5793 48.2002 66.5793 49.0046C66.5793 49.8089 66.8221 50.5991 67.2831 51.2957C67.7441 51.9922 68.4072 52.5706 69.2057 52.9728C70.0042 53.3749 70.91 53.5865 71.832 53.5864C72.754 53.5864 73.6597 53.3745 74.4581 52.9722C73.6594 52.5705 72.996 51.9923 72.5349 51.2958C72.0737 50.5994 71.8309 49.8092 71.831 49.0049Z"
            fill="#CCCCCC" />
        <path
            d="M78.2837 53.5866C81.1843 53.5866 83.5358 51.5352 83.5358 49.0047C83.5358 46.4742 81.1843 44.4229 78.2837 44.4229C75.3831 44.4229 73.0316 46.4742 73.0316 49.0047C73.0316 51.5352 75.3831 53.5866 78.2837 53.5866Z"
            fill="#3F51B5" />
        <path
            d="M87.0612 63.3156H56.4509C56.1595 63.3153 55.8801 63.2142 55.6741 63.0344C55.468 62.8547 55.3521 62.6109 55.3517 62.3567V35.6526C55.3521 35.3984 55.468 35.1547 55.6741 34.9749C55.8801 34.7951 56.1595 34.694 56.4509 34.6937H87.0612C87.3526 34.694 87.632 34.7951 87.8381 34.9749C88.0441 35.1547 88.16 35.3984 88.1604 35.6526V62.3567C88.16 62.6109 88.0441 62.8547 87.8381 63.0344C87.632 63.2142 87.3526 63.3153 87.0612 63.3156ZM56.4509 35.0775C56.2761 35.0777 56.1084 35.1383 55.9848 35.2462C55.8612 35.354 55.7916 35.5003 55.7915 35.6528V62.3569C55.7916 62.5094 55.8612 62.6557 55.9848 62.7635C56.1084 62.8714 56.2761 62.9321 56.4509 62.9322H87.0612C87.236 62.9321 87.4037 62.8714 87.5273 62.7635C87.651 62.6557 87.7205 62.5094 87.7207 62.3569V35.6528C87.7205 35.5003 87.651 35.354 87.5273 35.2462C87.4037 35.1383 87.236 35.0777 87.0612 35.0775H56.4509Z"
            fill="#CCCCCC" />
        <path d="M93.896 83.7856H46.9491V84.1692H93.896V83.7856Z" fill="#CCCCCC" />
        <path
            d="M48.4317 81.3907C49.2505 81.3907 49.9143 80.8116 49.9143 80.0972C49.9143 79.3829 49.2505 78.8038 48.4317 78.8038C47.6129 78.8038 46.9491 79.3829 46.9491 80.0972C46.9491 80.8116 47.6129 81.3907 48.4317 81.3907Z"
            fill="#3F51B5" />
        <path d="M93.896 96.719H46.9491V97.1026H93.896V96.719Z" fill="#CCCCCC" />
        <path
            d="M48.4317 94.3243C49.2505 94.3243 49.9143 93.7452 49.9143 93.0308C49.9143 92.3165 49.2505 91.7374 48.4317 91.7374C47.6129 91.7374 46.9491 92.3165 46.9491 93.0308C46.9491 93.7452 47.6129 94.3243 48.4317 94.3243Z"
            fill="#3F51B5" />
        <path
            d="M93.0368 111.447H78.2003C77.9441 111.447 77.6984 111.358 77.5171 111.2C77.3359 111.042 77.234 110.827 77.2337 110.604V106.067C77.234 105.844 77.3359 105.629 77.5171 105.471C77.6984 105.313 77.9441 105.224 78.2003 105.224H93.0368C93.2931 105.224 93.5388 105.313 93.7201 105.471C93.9013 105.629 94.0032 105.844 94.0035 106.067V110.604C94.0032 110.827 93.9013 111.042 93.7201 111.2C93.5388 111.358 93.2931 111.447 93.0368 111.447Z"
            fill="#3F51B5" />
        <path
            d="M53.2679 81.3907C54.0867 81.3907 54.7505 80.8116 54.7505 80.0972C54.7505 79.3829 54.0867 78.8038 53.2679 78.8038C52.4491 78.8038 51.7853 79.3829 51.7853 80.0972C51.7853 80.8116 52.4491 81.3907 53.2679 81.3907Z"
            fill="#3F51B5" />
        <path
            d="M58.1041 81.3907C58.9229 81.3907 59.5867 80.8116 59.5867 80.0972C59.5867 79.3829 58.9229 78.8038 58.1041 78.8038C57.2852 78.8038 56.6215 79.3829 56.6215 80.0972C56.6215 80.8116 57.2852 81.3907 58.1041 81.3907Z"
            fill="#3F51B5" />
        <path
            d="M53.2679 94.3243C54.0867 94.3243 54.7505 93.7452 54.7505 93.0308C54.7505 92.3165 54.0867 91.7374 53.2679 91.7374C52.4491 91.7374 51.7853 92.3165 51.7853 93.0308C51.7853 93.7452 52.4491 94.3243 53.2679 94.3243Z"
            fill="#3F51B5" />
        <path
            d="M58.1041 94.3243C58.9229 94.3243 59.5867 93.7452 59.5867 93.0308C59.5867 92.3165 58.9229 91.7374 58.1041 91.7374C57.2852 91.7374 56.6215 92.3165 56.6215 93.0308C56.6215 93.7452 57.2852 94.3243 58.1041 94.3243Z"
            fill="#3F51B5" />
        <path
            d="M159.402 140H5.17261C4.84245 140 4.57501 139.898 4.57501 139.772C4.57501 139.646 4.84245 139.543 5.17261 139.543H159.402C159.732 139.543 160 139.646 160 139.772C160 139.898 159.732 140 159.402 140Z"
            fill="#3F3D56" />
        <path
            d="M121.298 91.7236C121.403 91.7656 121.504 91.815 121.601 91.8711L131.235 88.2837L131.579 86.0696L135.429 86.0491L135.201 91.1272L122.485 94.061C122.458 94.1382 122.426 94.2138 122.389 94.2875C122.205 94.6297 121.909 94.917 121.539 95.1131C121.168 95.3092 120.74 95.4055 120.307 95.3899C119.874 95.3743 119.456 95.2474 119.106 95.0252C118.755 94.803 118.488 94.4955 118.337 94.1411C118.186 93.7868 118.159 93.4015 118.258 93.0336C118.357 92.6657 118.579 92.3316 118.896 92.0734C119.212 91.8151 119.609 91.6441 120.036 91.5818C120.463 91.5196 120.902 91.5689 121.298 91.7236Z"
            fill="#FFB8B8" />
        <path d="M136.829 137.741H134.195L132.943 128.879L136.829 128.879L136.829 137.741Z"
            fill="#FFB8B8" />
        <path
            d="M132.314 137.084H137.393V139.874H129.117C129.117 139.134 129.453 138.425 130.053 137.901C130.653 137.378 131.466 137.084 132.314 137.084Z"
            fill="#2F2E41" />
        <path d="M147.071 137.092L144.45 137.317L142.207 128.605L146.075 128.273L147.071 137.092Z"
            fill="#FFB8B8" />
        <path
            d="M142.505 136.824L147.559 136.39L147.872 139.166L139.636 139.874C139.594 139.51 139.636 139.141 139.758 138.791C139.88 138.44 140.08 138.114 140.346 137.831C140.612 137.548 140.94 137.313 141.311 137.14C141.681 136.968 142.087 136.86 142.505 136.824Z"
            fill="#2F2E41" />
        <path
            d="M137.562 76.6707C140.476 76.6707 142.838 74.61 142.838 72.068C142.838 69.526 140.476 67.4653 137.562 67.4653C134.648 67.4653 132.286 69.526 132.286 72.068C132.286 74.61 134.648 76.6707 137.562 76.6707Z"
            fill="#FFB8B8" />
        <path
            d="M133.607 135.949C133.381 135.949 133.161 135.88 132.988 135.753C132.814 135.626 132.698 135.45 132.659 135.256C131.295 128.655 126.84 107.07 126.733 106.472C126.731 106.459 126.73 106.445 126.73 106.431V104.822C126.73 104.763 126.751 104.706 126.79 104.658L127.379 103.939C127.407 103.904 127.443 103.876 127.486 103.855C127.528 103.835 127.576 103.824 127.624 103.822C130.98 103.685 141.97 103.282 142.501 103.861C143.034 104.443 142.846 106.205 142.803 106.552L142.805 106.588L147.742 134.135C147.781 134.354 147.719 134.579 147.569 134.759C147.42 134.939 147.195 135.06 146.944 135.097L143.86 135.54C143.631 135.572 143.395 135.532 143.197 135.425C142.999 135.319 142.851 135.154 142.781 134.961C141.827 132.302 138.629 123.357 137.52 119.896C137.513 119.874 137.498 119.856 137.476 119.843C137.454 119.831 137.428 119.825 137.402 119.829C137.376 119.832 137.353 119.843 137.336 119.86C137.319 119.878 137.309 119.9 137.31 119.922C137.365 123.222 137.499 131.639 137.545 134.546L137.55 134.859C137.552 135.071 137.463 135.276 137.3 135.434C137.137 135.591 136.913 135.69 136.671 135.71L133.697 135.945C133.667 135.948 133.637 135.949 133.607 135.949Z"
            fill="#2F2E41" />
        <path
            d="M134.214 78.4804C133.293 78.9579 132.742 79.8354 132.426 80.7283C131.841 82.3813 131.488 84.0905 131.377 85.8179L131.043 90.9901L126.906 104.702C130.491 107.348 132.559 106.747 137.385 104.582C142.211 102.418 142.762 105.304 142.762 105.304L143.727 93.6368L145.106 80.8878C144.796 80.5627 144.446 80.2689 144.061 80.0119C142.787 79.1474 141.304 78.5465 139.725 78.2545C138.146 77.9625 136.511 77.987 134.944 78.3261L134.214 78.4804Z"
            fill="#3F51B5" />
        <path
            d="M132.87 94.4929C132.981 94.5294 133.089 94.5735 133.193 94.6248L142.719 90.4651L142.877 88.2116L146.807 87.9752L147.017 93.1123L134.286 96.7851C134.183 97.1741 133.945 97.5262 133.606 97.7947C133.267 98.0632 132.843 98.2353 132.389 98.2881C131.935 98.3409 131.474 98.272 131.066 98.0904C130.658 97.9089 130.323 97.6233 130.106 97.2718C129.889 96.9202 129.8 96.5193 129.85 96.1223C129.9 95.7253 130.088 95.3511 130.388 95.0494C130.688 94.7478 131.086 94.533 131.53 94.4335C131.973 94.3341 132.441 94.3548 132.87 94.4929Z"
            fill="#FFB8B8" />
        <path
            d="M145.037 80.9461C147.381 81.6678 147.794 89.4865 147.794 89.4865C145.036 88.1634 141.727 90.3285 141.727 90.3285C141.727 90.3285 141.038 88.2837 140.21 85.6375C139.961 84.8932 139.931 84.1059 140.124 83.3488C140.316 82.5917 140.726 81.8895 141.313 81.3075C141.313 81.3075 142.693 80.224 145.037 80.9461Z"
            fill="#3F51B5" />
        <path
            d="M142.293 73.2852C141.635 72.8264 140.739 73.6603 140.739 73.6603L140.213 69.5313C140.213 69.5313 136.926 69.8748 134.822 69.4167C132.719 68.9586 132.39 71.0799 132.39 71.0799C132.282 70.223 132.26 69.3595 132.324 68.4992C132.456 67.467 134.165 66.4347 137.189 65.7465C140.213 65.0583 141.79 68.0404 141.79 68.0404C143.894 68.9579 142.95 73.744 142.293 73.2852Z"
            fill="#2F2E41" />
    </g>
    <defs>
        <clipPath id="clip0_30_914">
            <rect width="160" height="140" fill="white" />
        </clipPath>
    </defs>
</svg>
