<svg width="160" height="140" viewBox="0 0 160 140" fill="none" xmlns="http://www.w3.org/2000/svg">
<g clip-path="url(#clip0_30_768)">
<path d="M145.642 127.805C142.574 131.465 139.06 134.625 135.202 137.192C135.113 137.253 135.023 137.31 134.933 137.369L128.687 131.207C128.753 131.14 128.825 131.063 128.903 130.98C133.557 126.054 156.662 91.6192 158.201 83.2336C158.095 83.9322 159.591 111.329 145.642 127.805Z" fill="#F0F0F0"/>
<path d="M136.407 138.381C136.289 138.412 136.169 138.442 136.048 138.469L131.362 133.846C131.454 133.811 131.561 133.768 131.683 133.722C133.694 132.928 139.682 130.533 145.641 127.805C152.045 124.872 158.417 121.559 159.788 119.436C159.494 119.93 150.438 134.884 136.407 138.381Z" fill="#F0F0F0"/>
<path d="M145.555 36.6656H144.888V16.2919C144.888 14.7433 144.614 13.21 144.083 11.7793C143.551 10.3487 142.771 9.04877 141.789 7.9538C140.806 6.85883 139.64 5.99025 138.356 5.39766C137.073 4.80506 135.697 4.50006 134.307 4.50006H95.5765C94.1871 4.50006 92.8112 4.80506 91.5275 5.39765C90.2438 5.99024 89.0774 6.85881 88.095 7.95378C87.1125 9.04874 86.3331 10.3487 85.8014 11.7793C85.2696 13.2099 84.996 14.7433 84.996 16.2918V128.064C84.996 129.612 85.2696 131.146 85.8014 132.576C86.3331 134.007 87.1124 135.307 88.0949 136.402C89.0774 137.497 90.2438 138.366 91.5275 138.958C92.8112 139.551 94.1871 139.856 95.5765 139.856H134.307C135.697 139.856 137.073 139.551 138.356 138.958C139.64 138.366 140.806 137.497 141.789 136.402C142.771 135.307 143.551 134.007 144.082 132.576C144.614 131.146 144.888 129.612 144.888 128.064V51.168H145.555V36.6656Z" fill="#3F3D56"/>
<path d="M142.636 16.3728V127.982C142.636 129.139 142.431 130.284 142.034 131.352C141.637 132.42 141.055 133.391 140.321 134.209C139.587 135.026 138.716 135.675 137.757 136.117C136.798 136.559 135.771 136.787 134.733 136.786H95.8158C94.7783 136.786 93.751 136.559 92.7925 136.116C91.834 135.674 90.9631 135.025 90.2296 134.208C89.496 133.39 88.9141 132.42 88.5171 131.351C88.1201 130.283 87.9158 129.138 87.9159 127.982V16.3728C87.9158 15.2166 88.1201 14.0717 88.5171 13.0035C88.9141 11.9353 89.496 10.9647 90.2296 10.1472C90.9631 9.3296 91.834 8.6811 92.7925 8.23868C93.751 7.79626 94.7783 7.56859 95.8158 7.56868H100.539C100.307 8.20396 100.219 8.893 100.282 9.57519C100.345 10.2574 100.558 10.9118 100.901 11.4809C101.244 12.0501 101.708 12.5165 102.251 12.8391C102.794 13.1617 103.4 13.3307 104.015 13.3311H126.203C126.819 13.3318 127.425 13.1635 127.969 12.8412C128.512 12.5189 128.976 12.0524 129.32 11.483C129.663 10.9135 129.876 10.2586 129.939 9.57593C130.001 8.89329 129.912 8.20393 129.68 7.56868H134.733C135.771 7.56826 136.798 7.79568 137.757 8.23794C138.716 8.6802 139.587 9.32865 140.321 10.1462C141.055 10.9638 141.637 11.9345 142.034 13.0029C142.431 14.0713 142.636 15.2164 142.636 16.3728Z" fill="white"/>
<path d="M130.53 74.371H96.3226C95.7234 74.3703 95.149 74.1047 94.7253 73.6325C94.3017 73.1603 94.0634 72.5202 94.0627 71.8524V70.5988C94.0634 69.931 94.3017 69.2909 94.7253 68.8187C95.149 68.3465 95.7234 68.081 96.3226 68.0802H130.53C131.129 68.081 131.703 68.3465 132.127 68.8187C132.551 69.2909 132.789 69.931 132.79 70.5988V71.8524C132.789 72.5202 132.551 73.1603 132.127 73.6325C131.703 74.1047 131.129 74.3703 130.53 74.371Z" fill="#F0F0F0"/>
<path d="M130.53 85.1776H96.3226C95.7234 85.1768 95.149 84.9112 94.7253 84.4391C94.3017 83.9669 94.0634 83.3267 94.0627 82.659V81.4053C94.0634 80.7376 94.3017 80.0974 94.7253 79.6253C95.149 79.1531 95.7234 78.8875 96.3226 78.8868H130.53C131.129 78.8875 131.703 79.1531 132.127 79.6253C132.551 80.0974 132.789 80.7376 132.79 81.4053V82.659C132.789 83.3267 132.551 83.9669 132.127 84.4391C131.703 84.9112 131.129 85.1768 130.53 85.1776Z" fill="#F0F0F0"/>
<path d="M132.241 71.9541H98.0336C97.4045 71.9533 96.8014 71.6744 96.3566 71.1787C95.9117 70.6829 95.6615 70.0107 95.6608 69.3096V68.056C95.6615 67.3548 95.9117 66.6827 96.3566 66.1869C96.8014 65.6911 97.4045 65.4123 98.0336 65.4115H132.241C132.87 65.4123 133.473 65.6911 133.918 66.1869C134.363 66.6827 134.613 67.3548 134.614 68.056V69.3096C134.613 70.0107 134.363 70.6829 133.918 71.1787C133.473 71.6744 132.87 71.9533 132.241 71.9541ZM98.0336 65.9152C97.5244 65.9158 97.0361 66.1416 96.676 66.5429C96.3159 66.9442 96.1133 67.4884 96.1127 68.056V69.3096C96.1133 69.8772 96.3159 70.4213 96.676 70.8227C97.0361 71.224 97.5244 71.4498 98.0336 71.4504H132.241C132.75 71.4498 133.238 71.224 133.598 70.8227C133.959 70.4213 134.161 69.8772 134.162 69.3096V68.056C134.161 67.4884 133.959 66.9442 133.598 66.5429C133.238 66.1416 132.75 65.9158 132.241 65.9152H98.0336Z" fill="#3F3D56"/>
<path d="M132.241 82.7608H98.0336C97.4045 82.76 96.8014 82.4811 96.3566 81.9853C95.9117 81.4896 95.6615 80.8174 95.6608 80.1163V78.8626C95.6615 78.1615 95.9117 77.4893 96.3566 76.9936C96.8014 76.4978 97.4045 76.2189 98.0336 76.2181H132.241C132.87 76.2189 133.473 76.4978 133.918 76.9936C134.363 77.4893 134.613 78.1615 134.614 78.8626V80.1163C134.613 80.8174 134.363 81.4896 133.918 81.9853C133.473 82.4811 132.87 82.76 132.241 82.7608ZM98.0336 76.7218C97.5244 76.7225 97.0361 76.9482 96.676 77.3496C96.3159 77.7509 96.1133 78.2951 96.1127 78.8626V80.1163C96.1133 80.6839 96.3159 81.228 96.676 81.6294C97.0361 82.0307 97.5244 82.2564 98.0336 82.2571H132.241C132.75 82.2564 133.238 82.0307 133.598 81.6294C133.959 81.228 134.161 80.6839 134.162 80.1163V78.8626C134.161 78.2951 133.959 77.7509 133.598 77.3496C133.238 76.9482 132.75 76.7225 132.241 76.7218H98.0336Z" fill="#3F3D56"/>
<path d="M142.636 16.3728V40.6494C139.174 41.6642 135.55 41.7807 132.043 40.9897C128.535 40.1988 125.236 38.5216 122.401 36.0871C119.566 33.6526 117.27 30.5258 115.689 26.9471C114.109 23.3685 113.286 19.4335 113.284 15.4447C113.284 14.7328 113.309 14.0282 113.361 13.3311H126.203C126.819 13.3318 127.425 13.1635 127.969 12.8412C128.512 12.5189 128.976 12.0524 129.32 11.483C129.663 10.9135 129.876 10.2586 129.939 9.57593C130.001 8.89329 129.912 8.20393 129.679 7.56868H134.733C135.771 7.56826 136.798 7.79568 137.757 8.23794C138.716 8.6802 139.587 9.32865 140.321 10.1462C141.055 10.9638 141.637 11.9345 142.034 13.0029C142.431 14.0713 142.636 15.2164 142.636 16.3728Z" fill="#F0F0F0"/>
<path d="M107.58 135.27C107.58 135.782 107.563 136.287 107.526 136.786H95.8158C94.7783 136.786 93.751 136.559 92.7925 136.116C91.834 135.674 90.9631 135.025 90.2296 134.208C89.496 133.39 88.9141 132.42 88.5171 131.351C88.1201 130.283 87.9158 129.138 87.9159 127.982V116.044C90.3705 115.688 92.8649 115.92 95.2329 116.723C97.601 117.526 99.7882 118.882 101.649 120.702C103.51 122.521 105.001 124.761 106.024 127.273C107.046 129.785 107.577 132.512 107.58 135.27Z" fill="#3F51B5"/>
<path d="M13.1348 114.323C13.4638 114.485 13.8368 114.494 14.172 114.349C14.5071 114.204 14.7771 113.917 14.9226 113.551L25.4716 86.9057C25.713 86.296 25.7868 85.6201 25.6836 84.9636C25.5803 84.3072 25.3047 83.6995 24.8916 83.2176C24.4785 82.7357 23.9465 82.4011 23.3627 82.2562C22.779 82.1113 22.1698 82.1626 21.6123 82.4035C20.9681 82.6777 20.429 83.1921 20.0868 83.8593C20.0324 83.9649 19.983 84.0736 19.9389 84.185L9.3899 110.83C9.318 111.012 9.2789 111.207 9.27483 111.406C9.27076 111.604 9.30179 111.801 9.36616 111.986C9.43053 112.171 9.52698 112.341 9.64999 112.484C9.773 112.628 9.92017 112.743 10.0831 112.823L13.1348 114.323Z" fill="#3F51B5"/>
<path d="M25.0385 97.8448L14.6042 95.2606L17.1868 87.6464C17.6267 85.7854 18.6506 84.1617 20.0727 83.0699C21.4948 81.9781 23.2209 81.4905 24.938 81.6955L25.0385 81.7079L25.0385 97.8448Z" fill="#2F2E41"/>
<path d="M46.1141 114.705C45.8072 114.704 45.507 114.604 45.2499 114.418C44.9927 114.231 44.7896 113.965 44.6651 113.653L34.1161 87.0075C33.7806 86.1597 33.7494 85.2009 34.029 84.3282C34.3085 83.4556 34.8775 82.7355 35.6189 82.3162C36.3602 81.8969 37.2176 81.8102 38.0146 82.0739C38.8116 82.3376 39.4876 82.9318 39.9036 83.734C39.962 83.8474 40.015 83.9639 40.0623 84.0835L50.6113 110.729C50.7807 111.156 50.7906 111.642 50.6389 112.078C50.4873 112.514 50.1864 112.865 49.8026 113.053L46.6475 114.605L46.6459 114.601C46.4753 114.669 46.2954 114.704 46.1141 114.705Z" fill="#3F51B5"/>
<path d="M31.5222 105.555C31.1627 105.555 30.818 105.714 30.5638 105.998C30.3096 106.281 30.1667 106.665 30.1663 107.066V138.048C30.1667 138.449 30.3096 138.833 30.5638 139.116C30.818 139.399 31.1627 139.559 31.5222 139.559H34.8577C35.2172 139.559 35.5618 139.399 35.816 139.116C36.0702 138.833 36.2132 138.449 36.2136 138.048V107.066C36.2132 106.665 36.0702 106.281 35.816 105.998C35.5618 105.714 35.2172 105.555 34.8577 105.555H31.5222Z" fill="#3F51B5"/>
<path d="M24.925 105.555C24.5655 105.555 24.2208 105.714 23.9666 105.998C23.7124 106.281 23.5694 106.665 23.569 107.066V138.048C23.5694 138.449 23.7124 138.833 23.9666 139.116C24.2208 139.399 24.5655 139.559 24.925 139.559H28.2605C28.62 139.559 28.9646 139.399 29.2188 139.116C29.473 138.833 29.616 138.449 29.6164 138.048V107.066C29.616 106.665 29.473 106.281 29.2188 105.998C28.9646 105.714 28.62 105.555 28.2605 105.555H24.925Z" fill="#3F51B5"/>
<path d="M29.7917 73.0953C36.157 73.0953 41.3171 67.3445 41.3171 60.2506C41.3171 53.1566 36.157 47.4058 29.7917 47.4058C23.4263 47.4058 18.2662 53.1566 18.2662 60.2506C18.2662 67.3445 23.4263 73.0953 29.7917 73.0953Z" fill="#3F51B5"/>
<path d="M33.6271 65.6427C34.3742 65.6195 35.304 65.5906 36.0203 65.0075C36.2336 64.8267 36.4088 64.5961 36.5338 64.3319C36.6587 64.0677 36.7303 63.7763 36.7435 63.478C36.7564 63.266 36.7252 63.0536 36.6523 62.8573C36.5794 62.6609 36.4667 62.4861 36.323 62.3464C35.9489 61.994 35.4026 61.9114 34.8139 62.1042L35.4238 57.1361L34.9761 57.0678L34.259 62.9084L34.6329 62.7171C35.0664 62.4955 35.6615 62.3828 36.0313 62.731C36.1221 62.8221 36.1929 62.9353 36.238 63.0617C36.2832 63.1882 36.3016 63.3246 36.2918 63.4603C36.2808 63.6823 36.2271 63.8991 36.1342 64.0958C36.0414 64.2926 35.9116 64.4648 35.7537 64.6007C35.1962 65.0545 34.4551 65.113 33.6145 65.1392L33.6271 65.6427Z" fill="#2F2E41"/>
<path d="M40.0726 57.5646H37.6384V58.0683H40.0726V57.5646Z" fill="#2F2E41"/>
<path d="M32.389 57.5646H29.9548V58.0683H32.389V57.5646Z" fill="#2F2E41"/>
<path d="M41.2117 114.861L37.0635 81.1119C37.019 80.75 36.8584 80.4183 36.6114 80.1782C36.3644 79.9381 36.0478 79.8058 35.72 79.8058H32.5888C32.6019 79.7226 32.6087 79.6384 32.6091 79.554V78.2947C32.6091 77.8939 32.4663 77.5095 32.212 77.2261C31.9577 76.9427 31.6128 76.7835 31.2532 76.7835H28.5413C28.1817 76.7835 27.8368 76.9427 27.5826 77.2261C27.3283 77.5095 27.1854 77.8939 27.1854 78.2947V79.554C27.1859 79.6384 27.1927 79.7226 27.2057 79.8058H24.0745C23.7468 79.8058 23.4301 79.9381 23.1831 80.1782C22.9362 80.4183 22.7756 80.75 22.7311 81.1119L18.5828 114.861C18.5565 115.075 18.5716 115.292 18.6271 115.499C18.6826 115.706 18.7771 115.897 18.9044 116.059C19.0317 116.222 19.1887 116.352 19.3649 116.442C19.5412 116.531 19.7325 116.577 19.9262 116.577H39.8684C40.062 116.577 40.2533 116.531 40.4296 116.442C40.6058 116.352 40.7629 116.222 40.8901 116.059C41.0174 115.897 41.112 115.706 41.1674 115.499C41.2229 115.292 41.238 115.075 41.2117 114.861Z" fill="#2F2E41"/>
<path d="M34.7559 97.8448V81.7079L34.8564 81.6955C36.5756 81.4907 38.3036 81.9799 39.7266 83.0743C41.1496 84.1686 42.1732 85.7956 42.6113 87.6596L45.1902 95.2606L34.7559 97.8448Z" fill="#2F2E41"/>
<path d="M29.2113 73.4962L21.2395 70.0478C19.9359 69.4839 18.625 68.9372 17.3284 68.3539C16.7729 68.1382 16.2613 67.8021 15.8229 67.365C15.4413 66.9148 15.1812 66.3538 15.0724 65.7463C14.7959 64.4439 14.8459 63.0199 14.8656 61.6908C14.8809 60.2368 14.9883 58.7858 15.1869 57.3486C15.5351 54.6479 16.3526 52.0488 17.5938 49.697C19.8294 45.609 23.6813 42.5333 28.112 42.7787C30.1632 42.8924 32.2262 43.7127 33.7502 45.2756C33.9092 45.4874 34.0876 45.6801 34.2825 45.8505C34.4179 45.9071 34.5653 45.9182 34.7063 45.8822C34.8923 45.8689 35.0785 45.8587 35.2647 45.8517C35.9111 45.8213 36.5586 45.8516 37.2005 45.9422C38.3701 46.083 39.4786 46.596 40.3938 47.4199C41.1554 48.1501 41.7751 49.1808 41.8388 50.3263C41.8696 50.8522 41.7916 51.3789 41.6108 51.8658C41.43 52.3527 41.1513 52.7869 40.7961 53.1347C39.845 54.028 38.488 53.714 37.3472 53.6467L33.1678 53.3999L31.0502 53.2749C30.6142 53.2491 30.6155 54.0048 31.0502 54.0305L36.6785 54.3628C37.5829 54.4162 38.5151 54.547 39.4203 54.4866C40.1158 54.4515 40.7799 54.1537 41.3035 53.6423C41.7816 53.1527 42.1378 52.5335 42.3373 51.8448C42.5368 51.1562 42.5727 50.4217 42.4417 49.713C42.1515 48.1672 41.1192 46.8885 39.9091 46.1278C38.2625 45.0927 36.296 44.9935 34.4536 45.1465L34.6933 45.2572C32.6091 42.7642 29.4167 41.7117 26.4197 42.08C23.2554 42.4689 20.4409 44.4364 18.4188 47.1266C16.1642 50.1261 14.9356 53.8663 14.458 57.7122C14.2094 59.7887 14.1276 61.8857 14.2135 63.9784C14.2099 64.9013 14.3516 65.8177 14.6321 66.6861C14.9521 67.5313 15.5306 68.2226 16.2649 68.6371C17.1067 69.09 17.9721 69.4862 18.8565 69.8235L21.7935 71.094L27.5626 73.5896L29.0311 74.2248C29.4381 74.4008 29.6144 73.6706 29.2113 73.4962Z" fill="#2F2E41"/>
<path d="M16.6769 47.8197C15.9841 47.8197 15.3069 47.5908 14.7308 47.1618C14.1548 46.7329 13.7058 46.1232 13.4407 45.4099C13.1756 44.6965 13.1062 43.9116 13.2414 43.1543C13.3765 42.3971 13.7101 41.7015 14.2 41.1555C14.6899 40.6096 15.314 40.2378 15.9935 40.0871C16.673 39.9365 17.3773 40.0138 18.0174 40.3093C18.6574 40.6048 19.2045 41.1051 19.5894 41.7471C19.9743 42.3891 20.1797 43.1438 20.1797 43.9159C20.1787 44.9509 19.8093 45.9432 19.1526 46.6751C18.4959 47.4069 17.6056 47.8186 16.6769 47.8197ZM16.6769 40.7677C16.1182 40.7677 15.572 40.9523 15.1075 41.2983C14.6429 41.6442 14.2809 42.1359 14.0671 42.7112C13.8533 43.2864 13.7973 43.9194 13.9063 44.5301C14.0153 45.1408 14.2844 45.7018 14.6794 46.1421C15.0745 46.5824 15.5778 46.8822 16.1258 47.0037C16.6738 47.1252 17.2417 47.0628 17.7579 46.8245C18.2741 46.5862 18.7153 46.1827 19.0257 45.665C19.3361 45.1473 19.5017 44.5386 19.5017 43.9159C19.5009 43.0813 19.203 42.281 18.6734 41.6908C18.1439 41.1006 17.4258 40.7686 16.6769 40.7677Z" fill="#2F2E41"/>
<path d="M75.2314 72.0121L67.6497 65.5496L61.851 73.9992L69.4327 80.4617L75.2314 72.0121Z" fill="#F0F0F0"/>
<path d="M32.3831 14.3226C33.581 14.3215 34.7625 14.6331 35.833 15.2324C36.9034 15.8316 37.8331 16.7019 38.5475 17.7736L42.9746 11.3225L29.6912 0L19.5318 14.804L25.2569 19.684C25.8298 18.1004 26.8144 16.7439 28.0842 15.7885C29.354 14.8332 30.8511 14.3227 32.3831 14.3226Z" fill="#F0F0F0"/>
<path d="M159.774 140H0.225989C0.166053 140 0.108571 139.973 0.0661904 139.926C0.0238093 139.879 0 139.815 0 139.748C0 139.681 0.0238093 139.617 0.0661904 139.57C0.108571 139.523 0.166053 139.496 0.225989 139.496H159.774C159.834 139.496 159.891 139.523 159.934 139.57C159.976 139.617 160 139.681 160 139.748C160 139.815 159.976 139.879 159.934 139.926C159.891 139.973 159.834 140 159.774 140Z" fill="#3F3D56"/>
<path d="M120.834 98.2088H104.594C103.994 98.2081 103.42 97.9425 102.996 97.4703C102.573 96.9981 102.334 96.358 102.334 95.6902V94.4366C102.334 93.7689 102.573 93.1287 102.996 92.6565C103.42 92.1844 103.994 91.9188 104.594 91.918H120.834C121.433 91.9188 122.007 92.1844 122.431 92.6565C122.854 93.1287 123.093 93.7689 123.093 94.4366V95.6902C123.093 96.358 122.854 96.9981 122.431 97.4703C122.007 97.9425 121.433 98.2081 120.834 98.2088Z" fill="#3F51B5"/>
<path d="M122.545 95.7922H106.305C105.675 95.7914 105.072 95.5125 104.627 95.0168C104.183 94.521 103.932 93.8488 103.932 93.1477V91.894C103.932 91.1929 104.183 90.5207 104.627 90.025C105.072 89.5292 105.675 89.2503 106.305 89.2495H122.545C123.174 89.2503 123.777 89.5292 124.222 90.025C124.666 90.5207 124.917 91.1929 124.917 91.894V93.1477C124.917 93.8488 124.666 94.521 124.222 95.0168C123.777 95.5125 123.174 95.7914 122.545 95.7922ZM106.305 89.7532C105.795 89.7539 105.307 89.9796 104.947 90.381C104.587 90.7823 104.384 91.3265 104.384 91.894V93.1477C104.384 93.7153 104.587 94.2594 104.947 94.6607C105.307 95.0621 105.795 95.2878 106.305 95.2885H122.545C123.054 95.2878 123.542 95.0621 123.902 94.6607C124.262 94.2594 124.465 93.7153 124.465 93.1477V91.894C124.465 91.3265 124.262 90.7823 123.902 90.381C123.542 89.9796 123.054 89.7539 122.545 89.7532H106.305Z" fill="#3F3D56"/>
</g>
<defs>
<clipPath id="clip0_30_768">
<rect width="160" height="140" fill="white"/>
</clipPath>
</defs>
</svg>
