<?xml version="1.0" encoding="utf-8"?>
<!-- Generator: Adobe Illustrator 27.5.0, SVG Export Plug-In . SVG Version: 6.00 Build 0)  -->
<svg version="1.1" xmlns="http://www.w3.org/2000/svg" xmlns:xlink="http://www.w3.org/1999/xlink" x="0px" y="0px"
	 viewBox="0 0 500 500" style="enable-background:new 0 0 500 500;" xml:space="preserve">
<g id="BACKGROUND">
	<rect style="fill:#FFFFFF;" width="500" height="500"/>
</g>
<g id="OBJECT">
	<g>
		<g>
			<path style="fill:#F3F5F4;" d="M232.163,118.589c0,0-56.466,2.486-86.379,61.528c-29.913,59.042-60.798,40.613-79.038,93.873
				c-18.24,53.259,18.541,113.824,43.196,120.386s306.273,0,306.273,0s37.209-25.44,40.127-91.517
				c2.918-66.077-52.53-88.146-75.512-97.54C357.849,195.924,322.433,117.13,232.163,118.589z"/>
			<path style="fill:none;stroke:#BBBFBD;stroke-miterlimit:10;" d="M313.071,280.062c65.046-43.765,77.659-66.237,109.764-70.416
				c78.198-10.177,20.903,191.958-158.165,235.152c-85.079,20.522-190.467-35.452-205.539-78.941
				c-14.571-42.046,24.659-57.818,82.586-35.267C199.646,353.141,279.93,302.361,313.071,280.062z"/>
			
				<ellipse transform="matrix(0.675 -0.7378 0.7378 0.675 -45.6313 356.7103)" style="fill:#D9D9D9;" cx="382.109" cy="230.154" rx="9.904" ry="9.904"/>
			
				<ellipse transform="matrix(0.7071 -0.7071 0.7071 0.7071 -189.6 391.7771)" style="fill:none;stroke:#BBBFBD;stroke-miterlimit:10;" cx="378.117" cy="424.756" rx="9.904" ry="9.904"/>
			<circle style="fill:none;stroke:#BBBFBD;stroke-miterlimit:10;" cx="249.122" cy="199.469" r="9.904"/>
			<polygon style="fill:none;stroke:#BBBFBD;stroke-linecap:round;stroke-linejoin:round;stroke-miterlimit:10;" points="
				221.096,239.036 211.05,253.02 230.142,253.02 			"/>
			<polygon style="fill:#D9D9D9;" points="173.886,416.677 167.571,428.836 186.662,428.836 			"/>
			<g>
				
					<ellipse transform="matrix(0.2298 -0.9732 0.9732 0.2298 -208.1279 262.6512)" style="fill:none;stroke:#BBBFBD;stroke-linecap:round;stroke-linejoin:round;stroke-miterlimit:10;" cx="61.873" cy="262.816" rx="18.894" ry="18.894"/>
				<text transform="matrix(1 0 0 1 54.5595 276.6644)" style="fill:#99C6AB; font-family:'Alatsi-Regular'; font-size:35.6206px;">?</text>
			</g>
			<g>
				
					<ellipse transform="matrix(0.7071 -0.7071 0.7071 0.7071 -13.0638 217.8497)" style="fill:#99C6AB;" cx="256.436" cy="124.694" rx="18.894" ry="18.894"/>
				
					<text transform="matrix(1 0 0 1 249.1225 138.5423)" style="fill:#FFFFFF; font-family:'Alatsi-Regular'; font-size:35.6206px;">?</text>
			</g>
		</g>
		
			<ellipse transform="matrix(0.2288 -0.9735 0.9735 0.2288 -177.9381 316.8274)" style="fill:#D9D9D9;" cx="110.998" cy="270.72" rx="9.516" ry="9.516"/>
	</g>
	<g>
		<g>
			<line style="fill:#D9D9D9;" x1="364.187" y1="129.815" x2="445.643" y2="129.815"/>
			<path style="fill:#AED6BE;" d="M448.098,100.651h-85.155c-4.861,0-8.801,3.94-8.801,8.801v51.251c0,4.861,3.94,8.801,8.801,8.801
				h17.333l-3.437,8.881c-0.995,2.572,1.983,4.85,4.205,3.217l16.46-12.099h50.595c4.861,0,8.801-3.94,8.801-8.801v-51.251
				C456.899,104.591,452.958,100.651,448.098,100.651z"/>
			
				<line style="fill:none;stroke:#FFFFFF;stroke-linecap:round;stroke-linejoin:round;stroke-miterlimit:10;" x1="364.187" y1="115.018" x2="445.643" y2="115.018"/>
			
				<line style="fill:none;stroke:#FFFFFF;stroke-linecap:round;stroke-linejoin:round;stroke-miterlimit:10;" x1="364.187" y1="122.416" x2="445.643" y2="122.416"/>
			
				<line style="fill:none;stroke:#FFFFFF;stroke-linecap:round;stroke-linejoin:round;stroke-miterlimit:10;" x1="364.187" y1="129.815" x2="445.643" y2="129.815"/>
			
				<line style="fill:none;stroke:#FFFFFF;stroke-linecap:round;stroke-linejoin:round;stroke-miterlimit:10;" x1="364.187" y1="137.214" x2="445.643" y2="137.214"/>
			
				<line style="fill:none;stroke:#FFFFFF;stroke-linecap:round;stroke-linejoin:round;stroke-miterlimit:10;" x1="364.187" y1="144.613" x2="445.643" y2="144.613"/>
			
				<line style="fill:none;stroke:#FFFFFF;stroke-linecap:round;stroke-linejoin:round;stroke-miterlimit:10;" x1="364.187" y1="152.012" x2="445.643" y2="152.012"/>
		</g>
		<g>
			<path style="fill:#FF996A;" d="M181.841,263.573c0,0-0.867-7.279-1.993-10.746c-1.127-3.466-5.893-10.052-5.893-10.052
				s-1.906,4.073,0.867,7.452c0,0-0.173,5.373,0.087,7.279c0,0-9.009-7.695-10.742-8.475l0,0c-1.099-0.877-2.44-1.946-4.077-3.251
				c-5.979-4.766-9.965-3.293-9.446-2.946c0.358,0.238,7.196,5.768,11.429,9.196l-0.554,0.793c-1.286-1.026-3.334-2.661-6.369-5.08
				c-5.979-4.766-9.966-3.293-9.446-2.946c0.435,0.29,10.444,8.397,13.708,11.042l-0.963,1.38c-1.266-1.01-3.372-2.691-6.593-5.258
				c-5.979-4.766-9.965-3.293-9.446-2.946c0.445,0.297,10.932,8.793,13.931,11.223l-1.021,1.463c-1.113-1.011-4.205-3.757-7.19-5.84
				c-3.726-2.6-6.413-1.387-6.413-1.387s0,0,1.646,1.473c1.646,1.473,10.225,8.233,10.225,8.233s13.098,11.699,16.385,12.825
				l3.205,3.058l11.793-12.765L181.841,263.573z"/>
			<path style="fill:#D3AA7D;" d="M276.131,344.378c-7.032,10.14-16.868,16.403-29.945,13.742
				c-35.019-7.118-76.368-75.094-76.368-75.094l2.081-2.252l15.433-16.697l53.712,48.809l16.773-24.281l16.384-23.711l8.097-11.717
				c0,0,4.742,7.498,7.726,31.332C291.887,299.446,287.953,327.367,276.131,344.378z"/>
			<path style="fill:#C1966B;" d="M276.131,344.378c-7.032,10.14-16.868,16.403-29.945,13.742
				c-35.019-7.118-76.368-75.094-76.368-75.094l2.081-2.252l1.283-0.713c0,0,49.274,67.786,70.039,57.703
				c12.839-6.234,14.901-31.085,14.597-49.16l16.384-23.711L276.131,344.378z"/>
			<polygon style="fill:#649176;" points="407.665,337.764 404.474,393.951 392.1,393.951 396.964,337.764 			"/>
			<polygon style="fill:#649176;" points="331.929,337.764 328.738,393.951 316.365,393.951 321.229,337.764 			"/>
			<path style="fill:#649176;" d="M408.931,347.49H310.9c-9.744,0-17.643-7.899-17.643-17.643v-54.836
				c0-9.744,7.899-17.643,17.643-17.643h98.031c9.744,0,17.643,7.899,17.643,17.643v54.836
				C426.574,339.591,418.675,347.49,408.931,347.49z"/>
			<path style="fill:#7EAF92;" d="M400.663,347.49h-98.031c-9.744,0-17.643-7.899-17.643-17.643v-54.836
				c0-9.744,7.899-17.643,17.643-17.643h98.031c9.744,0,17.643,7.899,17.643,17.643v54.836
				C418.305,339.591,410.406,347.49,400.663,347.49z"/>
			<path style="fill:#FFD294;" d="M326.772,232.07c0,0,19.334-3.105,45.345,23.804l6,138.077H269.409
				c0,0-11.87-93.152,1.966-126.279C285.212,234.544,310.063,230.589,326.772,232.07z"/>
			<path style="fill:#FF996A;" d="M288.846,157.185l4.773-6.535l40.691,13.624l-0.353,15.284h2.687c5.457,0,9.882,4.424,9.882,9.882
				l0,0c0,5.458-4.424,9.882-9.882,9.882H333.5l-0.479,20.745v18.23l-29.46,4.051l-0.722-12.193l-0.382-6.406l-4.275-2.041
				c-12.236-5.839-20.03-18.191-20.03-31.75C278.152,178.172,281.899,166.697,288.846,157.185z"/>
			<path style="fill:#D37A57;" d="M302.457,223.748l0.382,6.406c1.083-0.129,2.217-0.297,3.394-0.511
				c18.195-3.317,25.318-19.763,24.579-28.236C330.813,201.407,324.678,221.785,302.457,223.748z"/>
			<path style="fill:#D37A57;" d="M336.948,186.609c-0.762,0.577-1.464,1.34-1.715,2.294c0,0,1.519,0.506,1.657,2.21
				c0.138,1.703-1.657,2.44-1.657,2.44s1.381,2.302,3.683,1.059c2.302-1.243,1.92-5.582-0.368-6.491c0,0,3.637-0.414,4.971,0.921
				c0,0,0.305-1.339-1.215-2.523C340.737,185.296,338.531,185.41,336.948,186.609z"/>
			<path style="fill:#3F2D1F;" d="M288.846,157.185c0,0,5.51,9.484,12.63,12.553c7.12,3.069,14.73-1.398,21.85,2.677
				c7.12,4.075,2.578,11.712,4.174,15.382c1.596,3.669,3.366,4.16,3.366,4.16s0.957-10.434,3.092-12.398
				c0,0,6.393-0.054,8.383,1.809c0,0,3.572-7.21,4.186-12.857c0.614-5.647-5.647-7.488-5.647-7.488s-1.473-13.503-18.045-18.536
				c-16.572-5.033-29.215,2.946-35.844,0c-6.629-2.946-12.644,1.474-13.012,8.164c-0.368,6.689,4.174,9.145,4.174,9.145
				s-3.069,2.587-1.841,6.572c1.228,3.985,5.08,4.905,5.08,4.905S285.926,161.168,288.846,157.185z"/>
			<path style="fill:#FFFFFF;" d="M292.146,205.718l16.873-0.829c0,0-3.906,6.077-9.466,6.019
				C294.433,210.854,292.146,205.718,292.146,205.718z"/>
			<g>
				<path style="fill:#3F2D1F;" d="M311.54,178.237c-0.212,0-0.426-0.071-0.603-0.217c-3.561-2.934-7.063-0.442-7.099-0.415
					c-0.424,0.311-1.019,0.217-1.328-0.207c-0.309-0.424-0.217-1.018,0.207-1.328c1.62-1.183,5.677-2.607,9.428,0.483
					c0.405,0.334,0.463,0.933,0.129,1.338C312.087,178.119,311.815,178.237,311.54,178.237z"/>
			</g>
			<g>
				<path style="fill:#3F2D1F;" d="M290.557,178.237c-0.213,0-0.426-0.071-0.603-0.217c-3.561-2.934-7.064-0.442-7.099-0.415
					c-0.424,0.311-1.019,0.217-1.328-0.207c-0.309-0.424-0.217-1.018,0.207-1.328c1.621-1.183,5.677-2.607,9.428,0.483
					c0.406,0.334,0.463,0.933,0.129,1.338C291.104,178.119,290.832,178.237,290.557,178.237z"/>
			</g>
			<path style="fill:#9C897A;" d="M338.424,233.511l-5.34-6.946l-21.209,7.474l-3.434,5.959l-2.323-5.353l-3.221-3.517l-3.343,6.446
				c0,0,0.101,6.464,8.282,8.181C316.016,247.472,333.892,240.806,338.424,233.511z"/>
			<path style="fill:#77A58A;" d="M342.34,181.367c0,0-3.297-1.259-6.427,1.619s-2.07,5.706-2.07,5.706s1.446-3.41,4.545-3.038
				c3.099,0.372,5.353,8.744,1.212,10.31c-4.141,1.565-9.426-0.82-9.241-7.272c0.185-6.451,2.551-10.1,6.451-10.655
				C340.71,177.481,342.253,180.758,342.34,181.367z"/>
			<g>
				<path style="fill:#77A58A;" d="M313.06,213.795c-0.4,0-0.756-0.283-0.835-0.69c-0.088-0.462,0.214-0.908,0.676-0.997
					c16.041-3.085,21.475-18.191,21.528-18.343c0.154-0.443,0.637-0.678,1.083-0.524c0.444,0.154,0.679,0.638,0.525,1.082
					c-0.057,0.162-5.789,16.182-22.816,19.456C313.168,213.79,313.114,213.795,313.06,213.795z"/>
			</g>
			<path style="fill:#649176;" d="M309.482,213.236c0,1.982,1.607,3.589,3.59,3.589s3.589-1.607,3.589-3.589
				c0-1.982-1.607-3.59-3.589-3.59S309.482,211.253,309.482,213.236z"/>
			<path style="fill:#649176;" d="M337.983,187.201c0,0-0.454,3.965,0.417,6.087c0.871,2.121,2.235,1.023,2.5-1.553
				C341.164,189.159,338.589,185.546,337.983,187.201z"/>
			<path style="fill:#FFFFFF;" d="M303.852,185.87c0,0,0.007,3.701,4.851,4.315c4.845,0.614,5.727-4.315,5.727-4.315
				s-2.751-2.579-6.308-2.655C304.566,183.138,303.852,185.87,303.852,185.87z"/>
			<path style="fill:#FFFFFF;" d="M281.719,185.87c0,0,0.006,3.701,4.747,4.315c4.74,0.614,5.375-4.311,5.375-4.311
				s-2.464-2.583-5.944-2.659C282.417,183.138,281.719,185.87,281.719,185.87z"/>
			<path style="fill:#3F2D1F;" d="M291.84,185.874c0,0-2.539-2.789-5.256-3.29c-2.717-0.501-4.582,0.822-4.865,3.29
				c0,0,0.539-2.038,3.256-2.288C287.693,183.335,291.84,185.874,291.84,185.874z"/>
			<path style="fill:#3F2D1F;" d="M314.431,185.87c0,0-2.653-2.915-5.493-3.438c-2.84-0.523-4.789,0.859-5.085,3.438
				c0,0,0.563-2.13,3.403-2.392C310.096,183.217,314.431,185.87,314.431,185.87z"/>
			<path style="fill:#D37A57;" d="M296.495,185.976l-2.234,13.487c0,0-1.778,0.137-4.241-0.866
				C290.02,198.596,295.857,187.491,296.495,185.976z"/>
			<path style="fill:#649176;" d="M230.012,393.951c0,0-0.363-10.77,11.765-14.144c12.129-3.375,26.903,6.492,29.274,14.144H230.012
				z"/>
			<ellipse style="fill:#3F2D1F;" cx="308.503" cy="186.818" rx="3.039" ry="3.845"/>
			<path style="fill:#3F2D1F;" d="M290.233,186.938c0,2.057-1.327,3.725-2.964,3.725c-1.637,0-2.964-1.668-2.964-3.725
				c0-2.057,1.327-3.725,2.964-3.725C288.906,183.213,290.233,184.88,290.233,186.938z"/>
			<path style="fill:#D37A57;" d="M321.939,196.434c0,1.677-1.985,3.036-4.434,3.036c-2.449,0-4.434-1.359-4.434-3.036
				c0-1.676,1.985-3.035,4.434-3.035C319.954,193.398,321.939,194.757,321.939,196.434z"/>
			<path style="fill:#D37A57;" d="M285.733,194.979c0,1.676-1.985,3.035-4.434,3.035c-2.449,0-4.434-1.359-4.434-3.035
				c0-1.677,1.985-3.036,4.434-3.036C283.748,191.943,285.733,193.302,285.733,194.979z"/>
			<path style="fill:#E5BC89;" d="M401.991,359.668c-3.07,9.237-8.686,16.222-15.338,21.164c-4.533,3.355-9.541,5.759-14.54,7.27
				c-20.869,6.329-98.159,5.844-98.159,5.844l2.908-23.349l86.546-19.453c0,0-11.195-35.513-10.701-64.204
				c0.447-26.704,8.41-37.709,17.381-32.51c0.675,0.399,1.349,0.874,2.024,1.444c0,0,13.666,20.365,27.768,62.189
				C405.65,335.169,405.545,348.93,401.991,359.668z"/>
			<path style="fill:#FF996A;" d="M268.072,373.698l-18.361-3.346c0,0-3.374-0.578-6.749,0.882
				c-3.374,1.459-7.205,8.573-7.205,8.573s3.101,0.046,5.198-1.846c2.098-1.893,2.371-3.534,2.371-3.534l6.738,0.525l0.12,1.563
				c-2.25,0.492-8.656,1.953-11.782,3.293c-3.83,1.642-5.837,6.657-5.837,6.657s5.016-0.729,7.569-3.83l10.43-1.183l0.075,0.974
				c-2.15,0.146-5.989,0.628-9.592,2.216c-5.381,2.371-7.022,5.563-7.022,5.563s5.381,0,9.165-2.918l2.548-0.211
				c-2.518,1.614-4.691,5.501-4.691,5.501s1.094,0.274,3.557-0.821c2.462-1.094,3.101-2.342,3.101-2.342l7.176,0.537v0
				c3.726,0.532,9.363,1.055,12.584-0.019l6.862,1.056l2.154-17.286H268.072z"/>
			<path style="fill:#649176;" d="M420.924,405.25H75.67c-3.12,0-5.65-2.53-5.65-5.65l0,0c0-3.12,2.53-5.65,5.65-5.65h345.255
				c3.12,0,5.65,2.53,5.65,5.65l0,0C426.574,402.721,424.045,405.25,420.924,405.25z"/>
			<path style="fill:#7EAF92;" d="M288.576,405.25H73.41c-1.872,0-3.39-2.53-3.39-5.65l0,0c0-3.12,1.518-5.65,3.39-5.65h107.583
				h107.583c1.872,0,3.39,2.53,3.39,5.65l0,0C291.966,402.721,290.448,405.25,288.576,405.25z"/>
			<path style="fill:#7EAF92;" d="M223.511,372.176h-118.9c-4.01,0-7.481-2.79-8.344-6.706l-15.369-69.8
				c-0.754-3.423,1.853-6.666,5.358-6.666h120.241c3.554,0,6.63,2.472,7.394,5.943l15.417,70.017
				C230.123,368.668,227.303,372.176,223.511,372.176z"/>
			<path style="fill:#99C6AB;" d="M124.108,360.353c-0.993,5.002-6.83,8.058-13.038,6.825c-6.208-1.232-10.435-6.286-9.442-11.288
				c0.993-5.002,6.83-8.057,13.038-6.825C120.874,350.298,125.101,355.351,124.108,360.353z"/>
			<path style="fill:#649176;" d="M229.307,364.964l-15.417-70.018c-0.764-3.471-3.84-5.943-7.394-5.943h-6.931
				c3.554,0,6.63,2.472,7.394,5.943l15.417,70.018c0.816,3.704-2.004,7.212-5.797,7.212h6.931
				C227.303,372.176,230.123,368.668,229.307,364.964z"/>
			<path style="fill:#649176;" d="M208.731,391.146c0,1.549-1.251,2.8-2.8,2.8h-98.703c-1.583,0-3.022-0.647-4.06-1.685
				c-1.047-1.038-1.685-2.468-1.685-4.06c0-1.132,0.34-2.239,0.97-3.183l24.429-36.601c0.698-1.03,1.856-1.651,3.098-1.651h42.712
				c1.532,0,2.494,1.66,1.719,2.988l-20.624,35.63c-0.766,1.319,0.187,2.962,1.702,2.962h50.441c0.775,0,1.473,0.315,1.983,0.826
				C208.416,389.674,208.731,390.372,208.731,391.146z"/>
			<path style="fill:#649176;" d="M179.427,330.103h-60.555c-0.705,0-1.277-0.572-1.277-1.277l0,0c0-0.705,0.572-1.277,1.277-1.277
				h60.555c0.705,0,1.277,0.572,1.277,1.277l0,0C180.704,329.532,180.132,330.103,179.427,330.103z"/>
			<path style="fill:#649176;" d="M182.346,337.764H121.79c-0.705,0-1.277-0.572-1.277-1.277l0,0c0-0.705,0.572-1.277,1.277-1.277
				h60.555c0.705,0,1.277,0.572,1.277,1.277l0,0C183.622,337.193,183.051,337.764,182.346,337.764z"/>
			<path style="fill:#99C6AB;" d="M82.152,293.138h128.232c1.043,0,2.045,0.193,2.97,0.537c-1.154-2.787-3.891-4.671-6.993-4.671
				H86.12c-2.669,0-4.812,1.881-5.352,4.289C81.21,293.193,81.673,293.138,82.152,293.138z"/>
			<path style="fill:#99C6AB;" d="M213.888,360.353c-0.993,5.002-6.83,8.058-13.038,6.825c-6.208-1.232-10.435-6.286-9.442-11.288
				c0.993-5.002,6.83-8.057,13.038-6.825C210.653,350.298,214.88,355.351,213.888,360.353z"/>
			<path style="fill:#527A62;" d="M208.724,391.35c-0.106,1.491-1.448,2.597-2.943,2.597h-56.172c-2.268,0-4.107-1.839-4.107-4.106
				l0,0c0-0.776,0.22-1.536,0.634-2.192l25.807-40.882h0.749c1.532,0,2.494,1.66,1.719,2.988l-20.624,35.63
				c-0.766,1.319,0.187,2.962,1.702,2.962h50.441c0.775,0,1.473,0.315,1.983,0.826C208.46,389.717,208.784,390.495,208.724,391.35z"
				/>
			<path style="fill:#D3AA7D;" d="M372.113,388.102c-20.869,6.329-98.159,5.844-98.159,5.844l99.861-26.572
				c10.442-2.779,17.092-12.997,15.394-23.668c-4.389-27.587-12.884-77.087-19.121-89.277c0.675,0.399,1.349,0.874,2.024,1.444
				c0,0,13.666,20.365,27.768,62.189C413.984,359.896,392.992,381.782,372.113,388.102z"/>
			<path style="fill:none;stroke:#9C897A;stroke-linecap:round;stroke-linejoin:round;stroke-miterlimit:10;" d="M366.224,352.123
				c0,0,14.279-0.201,25.875,10.387"/>
			<path style="fill:none;stroke:#E5BC89;stroke-linecap:round;stroke-linejoin:round;stroke-miterlimit:10;" d="M336.346,236.003
				c0,0,18.789,6.389,28.042,17.343"/>
			<path style="fill:none;stroke:#9C897A;stroke-linecap:round;stroke-linejoin:round;stroke-miterlimit:10;" d="M242.818,316.078
				c0,0,10.376,13.44,11.704,28.917"/>
			<path style="fill:none;stroke:#E5BC89;stroke-linecap:round;stroke-linejoin:round;stroke-miterlimit:10;" d="M296.488,237.673
				c0,0-3.945,11.068,12.531,12.426c16.477,1.358,34.536-14.806,34.536-14.806"/>
			<polygon style="fill:#D37A57;" points="273.954,373.698 270.096,390.334 274.326,390.985 276.479,373.698 			"/>
			<path style="fill:none;stroke:#E5BC89;stroke-linecap:round;stroke-linejoin:round;stroke-miterlimit:10;" d="M307.835,245.755
				c0,0-4.885,13.92-8.282,49.92"/>
			<path style="fill:none;stroke:#543E2F;stroke-linecap:round;stroke-linejoin:round;stroke-miterlimit:10;" d="M339.388,161.176
				c0,0-7.696-1.821-14.66,0.857"/>
			<path style="fill:none;stroke:#543E2F;stroke-linecap:round;stroke-linejoin:round;stroke-miterlimit:10;" d="M288.846,157.185
				c0,0-0.776,11.27,13.482,12.88"/>
			<path style="fill:none;stroke:#543E2F;stroke-linecap:round;stroke-linejoin:round;stroke-miterlimit:10;" d="M340.657,153.747
				c0,0,1.659,4.479,0.223,7.275"/>
			<path style="fill:none;stroke:#543E2F;stroke-linecap:round;stroke-linejoin:round;stroke-miterlimit:10;" d="M276.085,149.176
				c0,0-0.643,6.921,6.428,9.643"/>
			<path style="fill:none;stroke:#543E2F;stroke-linecap:round;stroke-linejoin:round;stroke-miterlimit:10;" d="M278.657,162.033
				c0,0-1.313,5.18,3.575,7.411"/>
			<path style="fill:none;stroke:#543E2F;stroke-linecap:round;stroke-linejoin:round;stroke-miterlimit:10;" d="M301.478,144.354
				c0,0,9.119-3.999,22.071,1.821c11.683,5.25,12.797,11.786,12.797,11.786"/>
			<path style="fill:none;stroke:#543E2F;stroke-linecap:round;stroke-linejoin:round;stroke-miterlimit:10;" d="M340.657,163.961
				c0,0,2.571,1.214,2.571,4.857c0,3.643-1.763,7.357-1.763,7.357"/>
			<path style="fill:none;stroke:#543E2F;stroke-linecap:round;stroke-linejoin:round;stroke-miterlimit:10;" d="M297.835,162.676
				c0,0,1.819,4.821,12.427,5.357c10.608,0.536,14.037,0.536,16.93,3.964c2.893,3.429,1.929,7.179,1.929,7.179"/>
		</g>
	</g>
	<g>
		<g>
			<path style="fill:#D9D9D9;" d="M293.862,50.828h-96.544c-5.591,0-10.123,4.533-10.123,10.124v16.53
				c0,5.591,4.532,10.123,10.123,10.123h12.787l-2.975,10.274c-0.554,1.913,1.554,3.494,3.235,2.427l20.02-12.701h63.477
				c5.591,0,10.123-4.532,10.123-10.123v-16.53C303.986,55.361,299.453,50.828,293.862,50.828z"/>
			
				<line style="fill:none;stroke:#FFFFFF;stroke-linecap:round;stroke-linejoin:round;stroke-miterlimit:10;" x1="200.325" y1="60.723" x2="291.42" y2="60.723"/>
			
				<line style="fill:none;stroke:#FFFFFF;stroke-linecap:round;stroke-linejoin:round;stroke-miterlimit:10;" x1="200.325" y1="68.452" x2="291.42" y2="68.452"/>
			
				<line style="fill:none;stroke:#FFFFFF;stroke-linecap:round;stroke-linejoin:round;stroke-miterlimit:10;" x1="200.325" y1="76.181" x2="291.42" y2="76.181"/>
		</g>
		<g>
			<circle style="fill:none;stroke:#BBBFBD;stroke-miterlimit:10;" cx="136.575" cy="151.062" r="82.198"/>
			<path style="fill:#99C6AB;" d="M213.556,151.055c0,28.728-15.737,53.779-39.058,67.007c-2.613,1.482-5.322,2.823-8.106,3.991
				c-9.171,3.858-19.244,5.987-29.811,5.987c-0.703,0-1.397-0.01-2.091-0.029c-0.428-0.01-0.855-0.029-1.283-0.057
				c-0.304,0-0.599-0.009-0.903-0.038c-0.456-0.019-0.912-0.048-1.359-0.085c-0.19-0.01-0.38-0.019-0.57-0.048
				c-0.542-0.029-1.074-0.085-1.606-0.133c-0.618-0.066-1.226-0.133-1.834-0.209l19.035-27.531l-50.567-54.824l-32.995,26.657
				c-0.342-1.235-0.656-2.471-0.941-3.735c-0.104-0.475-0.209-0.96-0.304-1.435c-0.133-0.627-0.257-1.264-0.361-1.891
				c-0.076-0.418-0.152-0.836-0.209-1.254c-0.105-0.599-0.19-1.207-0.276-1.815c-0.048-0.342-0.095-0.675-0.133-1.017
				c-0.067-0.523-0.133-1.055-0.181-1.587l-0.029-0.314c-0.057-0.57-0.114-1.14-0.152-1.72c-0.048-0.637-0.095-1.273-0.124-1.92
				v-0.038c-0.038-0.656-0.067-1.311-0.076-1.977c-0.019-0.656-0.028-1.321-0.028-1.986c0-12.782,3.117-24.832,8.629-35.438
				C79.675,93.57,101.485,77.766,127.21,74.64c3.07-0.371,6.196-0.561,9.37-0.561c12.924,0,25.117,3.193,35.808,8.828
				l-33.527,27.075l22.38,67.862l43.401-62.759C210.334,125.815,213.556,138.064,213.556,151.055z"/>
			<path style="fill:#7EAF92;" d="M68.02,115.55l27.179,29.469l-32.995,26.657c-0.342-1.235-0.656-2.471-0.941-3.735
				c-0.104-0.475-0.209-0.96-0.304-1.435c-0.133-0.627-0.257-1.264-0.361-1.891c-0.076-0.418-0.152-0.836-0.209-1.254
				c-0.104-0.599-0.19-1.207-0.276-1.815c-0.048-0.342-0.095-0.675-0.133-1.017c-0.067-0.523-0.133-1.055-0.181-1.587l-0.028-0.314
				c-0.057-0.57-0.114-1.14-0.152-1.72c-0.047-0.637-0.095-1.273-0.124-1.92v-0.038c-0.038-0.656-0.066-1.311-0.076-1.977
				c-0.019-0.656-0.028-1.321-0.028-1.986C59.391,138.205,62.508,126.155,68.02,115.55z"/>
			<path style="fill:#7EAF92;" d="M166.188,221.986c-9.171,3.858-19.244,5.987-29.812,5.987c-0.703,0-1.397-0.01-2.091-0.029
				c-0.428-0.01-0.855-0.029-1.283-0.057c-0.304,0-0.599-0.01-0.903-0.038c-0.456-0.019-0.912-0.048-1.359-0.085
				c-0.19-0.01-0.38-0.019-0.57-0.048c-0.542-0.028-1.074-0.085-1.606-0.133c-0.618-0.066-1.226-0.133-1.834-0.209l19.035-27.531
				L166.188,221.986z"/>
			<path style="fill:#7EAF92;" d="M172.185,82.84l-33.527,27.075l-11.651-35.342c3.07-0.371,6.196-0.561,9.37-0.561
				C149.301,74.011,161.493,77.204,172.185,82.84z"/>
			<path style="fill:#7EAF92;" d="M213.352,150.987c0,28.728-15.737,53.779-39.058,67.007l-13.257-40.217l43.401-62.759
				C210.131,125.747,213.352,137.996,213.352,150.987z"/>
			<path style="fill:#649176;" d="M145.766,199.843l-19.035,27.531c-0.485-0.057-0.969-0.123-1.454-0.2
				c-0.399-0.057-0.798-0.114-1.197-0.18c-0.447-0.066-0.884-0.143-1.331-0.228c-0.589-0.104-1.178-0.209-1.768-0.333
				c-0.504-0.104-1.007-0.209-1.502-0.323c-0.314-0.067-0.627-0.143-0.941-0.219c-0.418-0.095-0.827-0.2-1.245-0.304
				c-1.359-0.342-2.699-0.732-4.029-1.15c-0.485-0.152-0.969-0.304-1.444-0.466c-0.646-0.219-1.283-0.437-1.91-0.675
				c-0.589-0.209-1.178-0.437-1.758-0.665c-0.589-0.228-1.169-0.466-1.739-0.713c-0.57-0.238-1.14-0.485-1.701-0.741
				c0,0-0.009,0-0.019-0.01c-0.57-0.257-1.131-0.523-1.692-0.789c-1.711-0.817-3.374-1.701-5.008-2.642
				c-0.513-0.304-1.026-0.608-1.53-0.912c-1.064-0.637-2.11-1.311-3.127-2.005c-0.513-0.342-1.017-0.694-1.52-1.055
				c-0.504-0.352-1.007-0.722-1.502-1.093c-0.019-0.01-0.038-0.029-0.066-0.048c-0.466-0.352-0.941-0.713-1.397-1.074
				c-0.409-0.323-0.808-0.637-1.207-0.969c-0.589-0.475-1.169-0.969-1.739-1.464c-0.437-0.38-0.865-0.76-1.292-1.15
				c-0.428-0.39-0.855-0.789-1.283-1.188c-0.048-0.048-0.095-0.086-0.133-0.124c-0.418-0.409-0.836-0.817-1.254-1.235
				c-0.361-0.361-0.722-0.732-1.083-1.102c-0.494-0.513-0.988-1.036-1.464-1.568c-0.418-0.456-0.827-0.922-1.226-1.388
				c-0.323-0.361-0.627-0.732-0.931-1.102c-0.19-0.209-0.361-0.418-0.532-0.637c-0.304-0.371-0.599-0.741-0.893-1.112
				c-0.333-0.418-0.656-0.836-0.969-1.264c-0.428-0.561-0.846-1.121-1.245-1.701c-0.361-0.504-0.713-1.007-1.055-1.521
				c-0.247-0.361-0.485-0.722-0.722-1.093c-0.152-0.219-0.295-0.447-0.437-0.675c-0.646-1.007-1.273-2.043-1.872-3.089
				c-0.276-0.494-0.551-0.988-0.827-1.492c-0.627-1.15-1.226-2.319-1.787-3.507c-0.247-0.494-0.475-0.998-0.703-1.501
				c-0.238-0.532-0.475-1.064-0.703-1.596c-0.019-0.038-0.028-0.086-0.047-0.124c-0.238-0.561-0.475-1.131-0.703-1.701
				c0-0.019-0.01-0.038-0.019-0.066c-0.228-0.57-0.447-1.15-0.656-1.729c-0.209-0.551-0.409-1.112-0.599-1.682
				c-0.171-0.504-0.342-1.017-0.504-1.53c-0.114-0.38-0.238-0.77-0.352-1.15c-0.009-0.029-0.019-0.048-0.019-0.076
				c-0.133-0.447-0.266-0.893-0.39-1.34l32.995-26.657L145.766,199.843z"/>
			<path style="fill:#649176;" d="M204.438,115.018l-43.401,62.759l-22.38-67.862l33.527-27.075
				C185.917,90.062,197.188,101.304,204.438,115.018z"/>
			<polygon style="fill:#7EAF92;" points="161.037,177.777 145.766,199.843 95.199,145.019 138.657,109.914 			"/>
			<path style="fill:#FF996A;" d="M150.627,140.279l0.242-4.053l2.705-1.291c7.742-3.695,12.674-11.51,12.674-20.09
				c0-7.457-2.37-14.718-6.766-20.737l-3.02-4.135l-25.747,8.62l0.224,9.671h-1.7c-3.453,0-6.253,2.799-6.253,6.253l0,0
				c0,3.453,2.799,6.253,6.253,6.253h1.989l0.303,13.127v4.608c0,0-4.65,4.48-13.475,8.281c0,0,9.839,12.354,26.098,13.169
				c16.259,0.815,16.885-8.962,16.885-8.962s-6.742-4.036-10.608-7.379L150.627,140.279z"/>
			<path style="fill:#D37A57;" d="M150.869,136.226l-0.242,4.053c-0.685-0.081-1.403-0.188-2.148-0.324
				c-11.513-2.099-16.02-12.505-15.553-17.866C132.926,122.09,136.809,134.984,150.869,136.226z"/>
			<path style="fill:#D37A57;" d="M129.044,112.726c0.482,0.365,0.926,0.848,1.085,1.451c0,0-0.961,0.32-1.049,1.398
				c-0.087,1.078,1.049,1.544,1.049,1.544s-0.874,1.456-2.33,0.67c-1.456-0.786-1.215-3.532,0.233-4.107
				c0,0-2.301-0.262-3.146,0.583c0,0-0.193-0.847,0.769-1.597C126.647,111.896,128.042,111.967,129.044,112.726z"/>
			<g>
				<path style="fill:#3F2D1F;" d="M150.315,105.109c-0.134,0.004-0.268,0.053-0.378,0.148c-2.198,1.922-4.459,0.41-4.482,0.394
					c-0.274-0.188-0.648-0.118-0.836,0.156c-0.188,0.274-0.118,0.648,0.155,0.836c1.047,0.718,3.639,1.544,5.954-0.48
					c0.25-0.218,0.276-0.598,0.057-0.848C150.663,105.173,150.488,105.104,150.315,105.109z"/>
			</g>
			<g>
				<path style="fill:#3F2D1F;" d="M163.843,106.587c-0.118-0.065-0.258-0.091-0.4-0.064c-2.87,0.537-4.049-1.914-4.06-1.939
					c-0.14-0.302-0.498-0.431-0.799-0.291c-0.301,0.14-0.431,0.498-0.291,0.799c0.537,1.151,2.349,3.179,5.371,2.614
					c0.327-0.061,0.542-0.375,0.48-0.702C164.109,106.819,163.995,106.671,163.843,106.587z"/>
			</g>
			<path style="fill:#FFFFFF;" d="M149.986,112.258c0,0-0.004,2.342-3.07,2.73s-3.624-2.73-3.624-2.73s1.741-1.632,3.992-1.68
				C149.534,110.53,149.986,112.258,149.986,112.258z"/>
			<path style="fill:#FFFFFF;" d="M163.991,112.258c0,0-0.004,2.342-3.003,2.73c-2.999,0.389-3.401-2.728-3.401-2.728
				s1.559-1.635,3.761-1.683C163.549,110.53,163.991,112.258,163.991,112.258z"/>
			<path style="fill:#3F2D1F;" d="M157.586,112.261c0,0,1.606-1.765,3.326-2.082c1.719-0.317,2.899,0.52,3.079,2.082
				c0,0-0.341-1.29-2.061-1.448C160.211,110.655,157.586,112.261,157.586,112.261z"/>
			<path style="fill:#3F2D1F;" d="M143.292,112.258c0,0,1.679-1.844,3.476-2.175c1.797-0.331,3.03,0.544,3.217,2.175
				c0,0-0.356-1.348-2.153-1.513C146.035,110.58,143.292,112.258,143.292,112.258z"/>
			<path style="fill:#D37A57;" d="M154.641,112.325l1.414,8.534c0,0,1.125,0.087,2.683-0.548
				C158.738,120.311,155.045,113.284,154.641,112.325z"/>
			<path style="fill:#3F2D1F;" d="M145.121,112.858c0,1.344,0.861,2.433,1.923,2.433c1.062,0,1.923-1.089,1.923-2.433
				c0-1.343-0.861-2.433-1.923-2.433C145.982,110.425,145.121,111.515,145.121,112.858z"/>
			<path style="fill:#3F2D1F;" d="M158.604,112.934c0,1.302,0.84,2.357,1.876,2.357c1.036,0,1.875-1.055,1.875-2.357
				c0-1.302-0.84-2.357-1.875-2.357C159.443,110.577,158.604,111.632,158.604,112.934z"/>
			<ellipse style="fill:#D37A57;" cx="141.347" cy="118.943" rx="2.805" ry="1.921"/>
			<ellipse style="fill:#D37A57;" cx="164.256" cy="118.022" rx="2.806" ry="1.921"/>
			<path style="fill:#FFFFFF;" d="M155.66,124.147c0,0-4.531,0.153-6.364,1.833s4.938,2.189,6.364,1.527
				C157.085,126.846,157.719,123.935,155.66,124.147z"/>
			<path style="fill:#3F2D1F;" d="M144.616,111.34c0,0-0.903,0.428-1.887-0.204c0,0,0.092,0.926,0.564,1.122L144.616,111.34z"/>
			<path style="fill:#3F2D1F;" d="M162.953,110.712c0,0,1.066,0.882,1.876,0.611c0.298-0.1-0.835,0.938-0.835,0.938
				C163.724,111.277,162.953,110.712,162.953,110.712z"/>
			<path style="fill:#847062;" d="M169.141,155.93c0,0,14.418,26.352,19.916,48.45l-14.866,8.657c0,0-5.909-11.811-7.944-29.935
				C164.213,164.977,169.141,155.93,169.141,155.93z"/>
			<path style="fill:#3F2D1F;" d="M161.037,96.428c0,0-14.406,13.634-27.574,12.141c0,0-1.426,9.571,0.95,13.237
				c0,0-1.018,1.009-2.444-2.822c-1.426-3.831-0.3-9.123-1.033-10.719c0,0-4.394-1.041-7.281,3.433
				c-2.887,4.474,3.432,9.937,7.57,9.072l0.19,8.227c0,0-4.741,1.769-8.746-1.625c-4.005-3.394-2.036-6.856-2.036-6.856
				s-6.041-5.963-6.313-14.244s6.618-13.485,6.618-13.485s2.274-12.252,17.411-12.388c15.137-0.136,19.549,4.412,19.549,4.412
				s9.771,1.663,12.524,12.049c2.753,10.386-4.176,15.94-4.176,15.94S164.243,99.493,161.037,96.428z"/>
			<path style="fill:#3F2D1F;" d="M123.485,91.361c0,0-0.728-8.898-9.172-8.522c-8.443,0.376-10.072,10.049-6.407,14.529
				c3.666,4.48,8.451,3.462,12.015,0C123.485,93.907,123.485,91.361,123.485,91.361z"/>
			<path style="fill:#FFFFFF;" d="M134.504,126.374l-5.322,11.081c-0.19,0.399-0.694,0.513-1.045,0.247l-0.219-0.171l-17.438-13.476
				c-0.266-0.209-0.352-0.58-0.19-0.884l6.015-11.014l0.143-0.257c0.2-0.38,0.703-0.475,1.036-0.2l16.84,13.846
				C134.561,125.747,134.637,126.089,134.504,126.374z"/>
			<path style="fill:#9C897A;" d="M171.206,219.752c-10.406,5.255-22.171,8.211-34.63,8.211c-10.254,0-20.042-2.005-28.985-5.654
				l-5.693-65.202c0,0,1.169-4.495,8.144-7.061c7.926-2.927,8.011-3.26,8.011-3.26c30.211,15.205,42.983,4.2,42.983,4.2l6.652,3.383
				c0.656,0.333,1.169,0.884,1.454,1.559c1.568,3.754,6.766,16.773,7.289,25.744C176.841,188.82,173.458,208.025,171.206,219.752z"
				/>
			<path style="fill:#9C897A;" d="M105.233,152.684c0,0-7.367,2.925-10.034,22.203c-2.668,19.278,0.18,29.492,0.18,29.492
				l14.665-17.409C110.044,186.971,115.064,160.282,105.233,152.684z"/>
			<path style="fill:#FF996A;" d="M127.13,124.489c-1.406,0.812-5.066,3.372-5.72,4.45c-0.314,0.519-0.445,1.11-0.499,1.588
				l-0.92-0.459c0.464-1.984,1.321-3.967,1.321-3.967s1.459-0.781,2.274-1.935c0.815-1.154,0.509-2.076,0.509-2.076
				c-0.556,0.321-1.451,0.906-2.384,1.568c0.013-0.018,0.029-0.034,0.042-0.053c0.814-1.154,0.509-2.076,0.509-2.076
				c-1.46,0.843-5.26,3.501-5.939,4.621c-0.366,0.604-0.492,1.3-0.534,1.819l-0.257-0.128c0.436-2.099,1.402-4.338,1.402-4.338
				s1.459-0.781,2.274-1.935c0.814-1.154,0.509-2.076,0.509-2.076c-1.46,0.843-5.26,3.501-5.939,4.621
				c-0.679,1.12-0.543,2.579-0.543,2.579l0.543,9.571l0.535,10.521c0,0-19.338,44.258-19.114,55.051
				c0.224,10.793,6.7,15.069,6.7,15.069s6.924-0.815,11.336-7.631c4.412-6.816,8.485-58.756,8.485-58.756s2.308-3.53,2.715-6.906
				c0.407-3.376-1.143-11.897-1.143-11.897c0.46-1.747,1.158-3.365,1.158-3.365s1.406-0.752,2.19-1.863
				C127.424,125.376,127.13,124.489,127.13,124.489z"/>
			<path style="fill:#D9D9D9;" d="M134.504,126.374l-5.322,11.081c-0.19,0.399-0.694,0.513-1.045,0.247l-0.219-0.171l5.379-11.565
				l-16.992-13.808l0.143-0.257c0.2-0.38,0.703-0.475,1.036-0.2l16.84,13.846C134.561,125.747,134.637,126.089,134.504,126.374z"/>
			<polygon style="fill:#D9D9D9;" points="116.306,114.373 115.568,115.824 119.234,118.776 120.074,117.376 			"/>
			<path style="fill:#FF996A;" d="M222.319,158.062l-4.108,0.764l-0.111-0.364c1.188-0.406,3.979-1.504,5.109-3.198
				c1.452-2.178,1.961-4.284,1.961-4.284s-2.517,1.317-3.486,3.831l-1.946,0.362c0.78-0.483,1.503-1.068,1.957-1.749
				c1.452-2.179,1.961-4.284,1.961-4.284s-2.517,1.317-3.486,3.831l-2.454,0.456c1.018-0.799,2.084-1.841,2.529-2.968
				c0.962-2.435,1.016-4.601,1.016-4.601s-2.183,1.817-2.602,4.478l-2.698,1.127l-11.808,3.688l0.089-1.705
				c0,0,0.445-0.267,1.692-1.247s2.803-5.047,2.803-5.047s-6.188,2.909-7.696,6.115c-1.508,3.206-2.945,11.133-2.945,11.133
				s-14.191,34.149-16.711,43.557l0,0c0,0-4.874,1.885-7.193,5.078c0,0,4.955,9.096,8.892,10.046c0,0,11.404-2.172,16.834-15.477
				c5.43-13.305,7.618-40.178,7.618-40.178l11.399-6.234c0,0,3.444-0.98,4.631-2.761c1.188-1.781,1.603-3.503,1.603-3.503
				S223.111,156.007,222.319,158.062z"/>
			<path style="fill:none;stroke:#847062;stroke-linecap:round;stroke-linejoin:round;stroke-miterlimit:10;" d="M171.548,196.818
				c0,0-6.677-1.286-18.105-1.286s-22.857,2.143-22.857,2.143"/>
			<path style="fill:none;stroke:#543E2F;stroke-linecap:round;stroke-linejoin:round;stroke-miterlimit:10;" d="M159.514,88.39
				c0,0,1.839,3.39,1.681,5.714"/>
			<path style="fill:none;stroke:#543E2F;stroke-linecap:round;stroke-linejoin:round;stroke-miterlimit:10;" d="M156.69,85.818
				c0,0-7.462,2.429-11.569,8.286"/>
			<path style="fill:none;stroke:#543E2F;stroke-linecap:round;stroke-linejoin:round;stroke-miterlimit:10;" d="M122.085,89.604
				c0,0-1.214,2.714-1.286,3.714c0,0-3.988,3.714-4.494,5.857"/>
			<path style="fill:none;stroke:#543E2F;stroke-linecap:round;stroke-linejoin:round;stroke-miterlimit:10;" d="M107.085,99.675
				c0.286,0.214,4.23,3.202,8.276,0.684"/>
			<path style="fill:none;stroke:#543E2F;stroke-linecap:round;stroke-linejoin:round;stroke-miterlimit:10;" d="M127.006,88.39
				c0,0,9.257-8.536,24.579-4.036"/>
			<path style="fill:none;stroke:#543E2F;stroke-linecap:round;stroke-linejoin:round;stroke-miterlimit:10;" d="M128.871,106.019
				c0,0,3.976,1.603,12.476,0s16.239-10.308,16.239-10.308"/>
			<path style="fill:none;stroke:#847062;stroke-linecap:round;stroke-linejoin:round;stroke-miterlimit:10;" d="M125.438,152.684
				c0,0,11.624,4.848,23.529,4.134c11.905-0.714,13.388-2.857,13.388-2.857"/>
		</g>
	</g>
</g>
</svg>
