<?xml version="1.0" encoding="utf-8"?>
<!-- Generator: Adobe Illustrator 27.5.0, SVG Export Plug-In . SVG Version: 6.00 Build 0)  -->
<svg version="1.1" xmlns="http://www.w3.org/2000/svg" xmlns:xlink="http://www.w3.org/1999/xlink" x="0px" y="0px"
	 viewBox="0 0 3710 3710" style="enable-background:new 0 0 3710 3710;" xml:space="preserve">
<g id="Background">
	<g>
		<g>
			<rect style="fill:#FFFFFF;" width="3710" height="5000"/>
		</g>
	</g>
</g>
<g id="Illustration">
	<g>
		<path style="fill:#F4F7FA;" d="M3221.442,1650.966c-76.318-499.541-389.224-1113.263-1007.405-1177.489
			c0,0-469.351-57.09-932.029,29.435c-274.599,51.352-515.383,204.217-667.741,423.922
			C461.909,1146.54,411.016,1414.44,472.781,1669.85c40.116,165.891,67.224,337.582,59.784,508.045
			c-12.948,296.675-5.498,573.599,282.418,750.527c257.076,157.978,580.61,297.308,889.266,321.712
			c209.76,16.585,444.993-10.253,647.163-64.864C3381.711,2906.954,3297.76,2150.507,3221.442,1650.966z"/>
		<g>
			<g>
				<rect x="2386.584" y="1343.586" style="fill:#BFC8D6;" width="773.214" height="65.585"/>
				<rect x="2738.673" y="1343.586" style="fill:#BFC8D6;" width="62.133" height="1422.161"/>
				<g>
					<g>
						<path style="fill:#BFC8D6;" d="M2459.073,1343.912c0,7.445-6.036,13.481-13.481,13.481h-38.623
							c-7.445,0-13.481-6.036-13.481-13.481v-0.653c0-7.445,6.036-13.481,13.481-13.481h38.623c7.446,0,13.481,6.036,13.481,13.481
							V1343.912z"/>
						<path style="fill:#BFC8D6;" d="M2459.073,1319.75c0,7.445-6.036,13.481-13.481,13.481h-38.623
							c-7.445,0-13.481-6.036-13.481-13.481v-0.653c0-7.445,6.036-13.481,13.481-13.481h38.623c7.446,0,13.481,6.036,13.481,13.481
							V1319.75z"/>
					</g>
					<g>
						<path style="fill:#BFC8D6;" d="M3142.539,1343.912c0,7.445-6.036,13.481-13.481,13.481h-38.623
							c-7.446,0-13.481-6.036-13.481-13.481v-0.653c0-7.445,6.036-13.481,13.481-13.481h38.623c7.446,0,13.481,6.036,13.481,13.481
							V1343.912z"/>
						<path style="fill:#BFC8D6;" d="M3142.539,1319.75c0,7.445-6.036,13.481-13.481,13.481h-38.623
							c-7.446,0-13.481-6.036-13.481-13.481v-0.653c0-7.445,6.036-13.481,13.481-13.481h38.623c7.446,0,13.481,6.036,13.481,13.481
							V1319.75z"/>
					</g>
				</g>
				<rect x="2386.584" y="1571.408" style="fill:#BFC8D6;" width="773.214" height="55.23"/>
				<g>
					<g>
						<path style="fill:#BFC8D6;" d="M2459.073,1564.831c0,7.445-6.036,13.481-13.481,13.481h-38.623
							c-7.445,0-13.481-6.036-13.481-13.481v-0.653c0-7.445,6.036-13.481,13.481-13.481h38.623c7.446,0,13.481,6.036,13.481,13.481
							V1564.831z"/>
						<path style="fill:#BFC8D6;" d="M2459.073,1537.216c0,7.445-6.036,13.481-13.481,13.481h-38.623
							c-7.445,0-13.481-6.036-13.481-13.481v-0.653c0-7.445,6.036-13.481,13.481-13.481h38.623c7.446,0,13.481,6.036,13.481,13.481
							V1537.216z"/>
					</g>
					<g>
						<path style="fill:#BFC8D6;" d="M3142.539,1564.831c0,7.445-6.036,13.481-13.481,13.481h-38.623
							c-7.446,0-13.481-6.036-13.481-13.481v-0.653c0-7.445,6.036-13.481,13.481-13.481h38.623c7.446,0,13.481,6.036,13.481,13.481
							V1564.831z"/>
						<path style="fill:#BFC8D6;" d="M3142.539,1537.216c0,7.445-6.036,13.481-13.481,13.481h-38.623
							c-7.446,0-13.481-6.036-13.481-13.481v-0.653c0-7.445,6.036-13.481,13.481-13.481h38.623c7.446,0,13.481,6.036,13.481,13.481
							V1537.216z"/>
					</g>
				</g>
			</g>
			<g>
				<rect x="1423.519" y="915.557" style="fill:#BFC8D6;" width="776.666" height="62.133"/>
				<rect x="1779.059" y="915.557" style="fill:#BFC8D6;" width="62.133" height="1422.161"/>
				<g>
					<g>
						<path style="fill:#BFC8D6;" d="M1496.008,915.883c0,7.445-6.036,13.481-13.481,13.481h-38.623
							c-7.445,0-13.481-6.036-13.481-13.481v-0.653c0-7.445,6.036-13.481,13.481-13.481h38.623c7.445,0,13.481,6.036,13.481,13.481
							V915.883z"/>
						<path style="fill:#BFC8D6;" d="M1496.008,891.721c0,7.445-6.036,13.481-13.481,13.481h-38.623
							c-7.445,0-13.481-6.036-13.481-13.481v-0.653c0-7.445,6.036-13.481,13.481-13.481h38.623c7.445,0,13.481,6.036,13.481,13.481
							V891.721z"/>
					</g>
					<g>
						<path style="fill:#BFC8D6;" d="M2182.925,915.883c0,7.445-6.035,13.481-13.481,13.481h-38.623
							c-7.445,0-13.481-6.036-13.481-13.481v-0.653c0-7.445,6.036-13.481,13.481-13.481h38.623c7.446,0,13.481,6.036,13.481,13.481
							V915.883z"/>
						<path style="fill:#BFC8D6;" d="M2182.925,891.721c0,7.445-6.035,13.481-13.481,13.481h-38.623
							c-7.445,0-13.481-6.036-13.481-13.481v-0.653c0-7.445,6.036-13.481,13.481-13.481h38.623c7.446,0,13.481,6.036,13.481,13.481
							V891.721z"/>
					</g>
				</g>
				<rect x="1423.519" y="1136.475" style="fill:#BFC8D6;" width="776.666" height="62.133"/>
				<g>
					<g>
						<path style="fill:#BFC8D6;" d="M1496.008,1133.35c0,7.445-6.036,13.481-13.481,13.481h-38.623
							c-7.445,0-13.481-6.036-13.481-13.481v-0.653c0-7.445,6.036-13.481,13.481-13.481h38.623c7.445,0,13.481,6.036,13.481,13.481
							V1133.35z"/>
						<path style="fill:#BFC8D6;" d="M1496.008,1109.187c0,7.445-6.036,13.481-13.481,13.481h-38.623
							c-7.445,0-13.481-6.036-13.481-13.481v-0.653c0-7.445,6.036-13.481,13.481-13.481h38.623c7.445,0,13.481,6.036,13.481,13.481
							V1109.187z"/>
					</g>
					<g>
						<path style="fill:#BFC8D6;" d="M2182.925,1133.35c0,7.445-6.035,13.481-13.481,13.481h-38.623
							c-7.445,0-13.481-6.036-13.481-13.481v-0.653c0-7.445,6.036-13.481,13.481-13.481h38.623c7.446,0,13.481,6.036,13.481,13.481
							V1133.35z"/>
						<path style="fill:#BFC8D6;" d="M2182.925,1109.187c0,7.445-6.035,13.481-13.481,13.481h-38.623
							c-7.445,0-13.481-6.036-13.481-13.481v-0.653c0-7.445,6.036-13.481,13.481-13.481h38.623c7.446,0,13.481,6.036,13.481,13.481
							V1109.187z"/>
					</g>
				</g>
			</g>
			<g>
				<g>
					<path style="fill:#BFC8D6;" d="M2255.513,1601.249c-77.962,0-155.152-11.097-230.894-33.272
						c-104.919-30.718-207.231-82.634-304.089-154.304c-164.797-121.942-258.015-260.908-258.937-262.297l8.936-5.933
						c0.915,1.376,93.282,139.001,256.665,259.817c150.475,111.272,393.8,230.667,698.493,167.583l2.172,10.504
						C2370.206,1595.285,2312.646,1601.249,2255.513,1601.249z"/>
				</g>
				<g>
					<path style="fill:#BFC8D6;" d="M2968.988,1588.647c-159.416,0.002-297.633-15.991-412.367-47.807
						c-122.141-33.869-218.121-85.646-285.279-153.892c-112.776-114.605-104.975-233.928-104.587-238.951l10.696,0.819
						c-0.091,1.185-7.651,119.854,101.811,230.885c65.866,66.813,160.261,117.582,280.554,150.894
						c151.283,41.893,343.952,56.075,572.674,42.146l0.649,10.706C3076.183,1586.917,3021.439,1588.647,2968.988,1588.647z"/>
				</g>
				<g>
					<path style="fill:#BFC8D6;" d="M2417.859,1364.882c-141.36,0-277.579-21.482-405.352-63.963
						c-109.455-36.39-212.975-88.179-307.693-153.93c-161.342-112-242.361-227.454-243.161-228.608l8.815-6.112
						c0.791,1.14,80.953,115.274,240.849,226.178c147.472,102.288,395.032,222.688,736.317,215.392l0.231,10.723
						C2437.839,1364.775,2427.831,1364.882,2417.859,1364.882z"/>
				</g>
				<g>
					<path style="fill:#BFC8D6;" d="M3132.563,1364.557c-178.317-8.345-339.964-36.203-480.451-82.798
						c-112.535-37.324-211.839-86.693-295.147-146.734c-142.236-102.508-187.864-199.204-189.736-203.27l9.742-4.49
						c0.45,0.976,46.689,98.681,186.97,199.567c129.603,93.206,368.245,208.249,769.124,227.009L3132.563,1364.557z"/>
				</g>
			</g>
		</g>
		<g>
			<path style="opacity:0.75;fill:#F4F7FA;" d="M1318.031,1043.344c0-178.016-151.557-322.326-338.512-322.326
				c-186.956,0-338.513,144.31-338.513,322.326c0,108.033,55.822,203.649,141.498,262.132
				c36.348,24.811,58.391,65.705,58.391,109.713v24.667c0,53.594,43.447,97.041,97.04,97.041h83.167
				c53.594,0,97.04-43.447,97.04-97.041v-24.667c0-44.007,22.044-84.902,58.391-109.713
				C1262.21,1246.993,1318.031,1151.377,1318.031,1043.344z"/>
			<linearGradient id="SVGID_1_" gradientUnits="userSpaceOnUse" x1="972.4676" y1="1737.0175" x2="978.4796" y2="1688.9216">
				<stop  offset="0.0036" style="stop-color:#26264F"/>
				<stop  offset="1" style="stop-color:#444B8C"/>
			</linearGradient>
			<path style="fill:url(#SVGID_1_);" d="M1054.61,1680.608c0,21.957-33.619,39.755-75.091,39.755s-75.092-17.799-75.092-39.755
				c0-21.956,33.62-39.755,75.092-39.755S1054.61,1658.653,1054.61,1680.608z"/>
			
				<linearGradient id="SVGID_00000141440261195507510710000018198676024935596714_" gradientUnits="userSpaceOnUse" x1="947.742" y1="1693.182" x2="1007.8627" y2="1584.9647">
				<stop  offset="0.0036" style="stop-color:#26264F"/>
				<stop  offset="1" style="stop-color:#444B8C"/>
			</linearGradient>
			<path style="fill:url(#SVGID_00000141440261195507510710000018198676024935596714_);" d="M879.75,1609.59v40.598
				c0,13.736,7.818,26.322,20.215,32.234c17.212,8.208,45.829,17.216,87.418,16.151c33.741-0.864,55.743-6.375,69.731-12.163
				c13.513-5.592,22.174-18.955,22.174-33.579v-22.463L879.75,1609.59z"/>
			
				<linearGradient id="SVGID_00000117648116035189488730000016701452241399301279_" gradientUnits="userSpaceOnUse" x1="879.7499" y1="1641.8982" x2="1079.288" y2="1641.8982">
				<stop  offset="0.0036" style="stop-color:#26264F"/>
				<stop  offset="1" style="stop-color:#444B8C"/>
			</linearGradient>
			<path style="opacity:0.3;fill:url(#SVGID_00000117648116035189488730000016701452241399301279_);" d="M879.75,1645.151
				c3.041,2.956,6.564,5.464,10.519,7.35c19.31,9.208,145.792,29.784,176.301,18.321c3.964-1.488,7.528-3.48,10.649-5.882
				c1.335-3.834,2.069-7.915,2.069-12.11v-22.463l-199.538-20.777V1645.151z"/>
			
				<linearGradient id="SVGID_00000073681187344471730390000012497776431356247475_" gradientUnits="userSpaceOnUse" x1="953.4648" y1="1663.6106" x2="1012.8338" y2="1549.3817">
				<stop  offset="0.0036" style="stop-color:#26264F"/>
				<stop  offset="1" style="stop-color:#444B8C"/>
			</linearGradient>
			<path style="fill:url(#SVGID_00000073681187344471730390000012497776431356247475_);" d="M888.609,1581.967
				c-11.239-1.171-21.018,7.644-21.018,18.943v1.151c0,15.41,8.768,29.529,22.678,36.162c19.31,9.209,145.792,29.784,176.301,18.322
				c15.36-5.771,24.878-18.958,24.878-35.365v-0.926c0-9.755-7.371-17.932-17.073-18.942L888.609,1581.967z"/>
			
				<linearGradient id="SVGID_00000071546161747243832170000006476609484798408833_" gradientUnits="userSpaceOnUse" x1="870.8102" y1="1608.2684" x2="1088.1289" y2="1608.2684">
				<stop  offset="0.0036" style="stop-color:#26264F"/>
				<stop  offset="1" style="stop-color:#444B8C"/>
			</linearGradient>
			<path style="opacity:0.3;fill:url(#SVGID_00000071546161747243832170000006476609484798408833_);" d="M1074.375,1601.31
				l-185.766-19.344c-7.33-0.763-14.018,2.735-17.798,8.385c3.732,8.793,10.527,16.149,19.458,20.408
				c19.31,9.209,151.179,32.467,176.301,20.629c9.78-4.609,17.45-12.389,21.559-21.845
				C1085.067,1605.053,1080.14,1601.911,1074.375,1601.31z"/>
			
				<linearGradient id="SVGID_00000043448398527536035650000003096567641617790903_" gradientUnits="userSpaceOnUse" x1="867.591" y1="1569.0027" x2="1091.4471" y2="1569.0027">
				<stop  offset="0.0036" style="stop-color:#26264F"/>
				<stop  offset="1" style="stop-color:#444B8C"/>
			</linearGradient>
			<path style="fill:url(#SVGID_00000043448398527536035650000003096567641617790903_);" d="M881.34,1516.191
				c-7.594,0-13.749,6.155-13.749,13.75v31.797c0,15.41,8.768,29.53,22.678,36.162c19.31,9.209,151.179,32.467,176.301,20.629
				c14.843-6.994,24.878-21.266,24.878-37.672v-50.917c0-7.595-6.156-13.75-13.75-13.75H881.34z"/>
			
				<linearGradient id="SVGID_00000052791917513994169830000010870845965887667592_" gradientUnits="userSpaceOnUse" x1="973.9593" y1="1552.1168" x2="996.0035" y2="1448.9105">
				<stop  offset="0.0036" style="stop-color:#26264F"/>
				<stop  offset="1" style="stop-color:#444B8C"/>
			</linearGradient>
			<path style="fill:url(#SVGID_00000052791917513994169830000010870845965887667592_);" d="M1088.679,1526.089
				c0,14.253-48.873,25.807-109.16,25.807c-60.287,0-109.16-11.555-109.16-25.807c0-14.254,48.873-25.809,109.16-25.809
				C1039.806,1500.281,1088.679,1511.836,1088.679,1526.089z"/>
			
				<linearGradient id="SVGID_00000028323594526235645440000017774826883515227781_" gradientUnits="userSpaceOnUse" x1="931.6257" y1="976.2362" x2="1368.9791" y2="1670.5912">
				<stop  offset="0" style="stop-color:#FCB148"/>
				<stop  offset="0.0521" style="stop-color:#FDBA46"/>
				<stop  offset="0.1424" style="stop-color:#FFC244"/>
				<stop  offset="0.3183" style="stop-color:#FFC444"/>
				<stop  offset="0.4849" style="stop-color:#FDB946"/>
				<stop  offset="0.7754" style="stop-color:#F99C4D"/>
				<stop  offset="0.8658" style="stop-color:#F8924F"/>
				<stop  offset="1" style="stop-color:#F8924F"/>
			</linearGradient>
			<path style="fill:url(#SVGID_00000028323594526235645440000017774826883515227781_);" d="M1318.031,1043.344
				c0-178.016-151.557-322.326-338.512-322.326c-186.956,0-338.513,144.31-338.513,322.326
				c0,108.033,55.822,203.649,141.498,262.132c36.348,24.811,58.391,65.705,58.391,109.713v24.667
				c0,53.594,43.447,97.041,97.04,97.041h83.167c53.594,0,97.04-43.447,97.04-97.041v-24.667c0-44.007,22.044-84.902,58.391-109.713
				C1262.21,1246.993,1318.031,1151.377,1318.031,1043.344z"/>
			<ellipse style="opacity:0.5;fill:#F4F7FA;" cx="979.519" cy="1505.739" rx="79.875" ry="18.884"/>
			
				<linearGradient id="SVGID_00000078046021376211396210000007284727878422414006_" gradientUnits="userSpaceOnUse" x1="946.9733" y1="819.7227" x2="859.7983" y2="1538.1631">
				<stop  offset="0" style="stop-color:#FCB148"/>
				<stop  offset="0.0521" style="stop-color:#FDBA46"/>
				<stop  offset="0.1424" style="stop-color:#FFC244"/>
				<stop  offset="0.3183" style="stop-color:#FFC444"/>
				<stop  offset="0.4849" style="stop-color:#FDB946"/>
				<stop  offset="0.7754" style="stop-color:#F99C4D"/>
				<stop  offset="0.8658" style="stop-color:#F8924F"/>
				<stop  offset="1" style="stop-color:#F8924F"/>
			</linearGradient>
			<path style="opacity:0.3;fill:url(#SVGID_00000078046021376211396210000007284727878422414006_);" d="M985.661,1297.583
				c7.252-124.234,216.69-153.309,215.792-264.258c-0.552-68.333-83.777-119.08-101.548-129.244
				c-130.951-74.896-292.132,11.593-325.42-49.62c-8.288-15.241-4.402-31.831-2.189-41.279c3.346-14.28,10.918-27.579,22.152-39.744
				c-92.389,57.554-153.442,156.933-153.442,269.907c0,108.033,55.822,203.649,141.498,262.132
				c36.348,24.811,58.391,65.705,58.391,109.714v24.665c0,53.594,43.447,97.041,97.04,97.041h83.167
				c53.594,0,97.04-43.447,97.04-97.041v-19.72c-11.446,8.772-24.592,14.889-39.007,14.772
				C1029.113,1434.494,982.053,1359.407,985.661,1297.583z"/>
			<ellipse style="opacity:0.44;fill:#F4F7FA;" cx="984.933" cy="1055.911" rx="291.297" ry="280.924"/>
			<polygon style="fill:#FFFFFF;" points="1089.853,838.056 863.136,1087.66 956.325,1087.081 880.777,1274.841 1107.061,1023.899 
				1022.957,1024.132 			"/>
		</g>
		<g>
			
				<linearGradient id="SVGID_00000139268541543519904700000009457829478859979181_" gradientUnits="userSpaceOnUse" x1="526.7404" y1="2405.05" x2="1923.8317" y2="2405.05">
				<stop  offset="0.0036" style="stop-color:#26264F"/>
				<stop  offset="1" style="stop-color:#444B8C"/>
			</linearGradient>
			<path style="fill:url(#SVGID_00000139268541543519904700000009457829478859979181_);" d="M617.113,3021.184
				c-32.197,0-62.2-16.286-78.299-44.17c-16.099-27.883-16.099-62.009,0-89.893l608.173-1053.128
				c16.098-27.884,46.1-45.076,78.297-45.076c32.2,0,62.202,17.387,78.3,45.272l608.172,1053.418
				c16.1,27.883,16.1,61.508-0.002,89.393c-16.093,27.88-46.095,44.184-78.295,44.184H617.113z"/>
			
				<linearGradient id="SVGID_00000119091468453884737110000002231726807613676216_" gradientUnits="userSpaceOnUse" x1="565.9144" y1="2405.7222" x2="1884.6533" y2="2405.7222">
				<stop  offset="0" style="stop-color:#FCB148"/>
				<stop  offset="0.0521" style="stop-color:#FDBA46"/>
				<stop  offset="0.1424" style="stop-color:#FFC244"/>
				<stop  offset="0.3183" style="stop-color:#FFC444"/>
				<stop  offset="0.4849" style="stop-color:#FDB946"/>
				<stop  offset="0.7754" style="stop-color:#F99C4D"/>
				<stop  offset="0.8658" style="stop-color:#F8924F"/>
				<stop  offset="1" style="stop-color:#F8924F"/>
			</linearGradient>
			<path style="fill:url(#SVGID_00000119091468453884737110000002231726807613676216_);" d="M1877.795,2958.036
				c-9.141,15.834-26.055,25.177-44.34,25.177H617.107c-18.285,0-35.174-9.343-44.317-25.177c-9.168-15.834-9.168-35.164,0-50.998
				l608.15-1053.27c7.501-12.966,20.173-21.812,34.536-24.607c3.187-0.637,6.471-0.93,9.804-0.93
				c18.285,0,35.199,9.768,44.342,25.627l608.173,1053.173C1886.939,2922.865,1886.939,2942.201,1877.795,2958.036z"/>
			
				<linearGradient id="SVGID_00000031893724488023235120000004284022020976715964_" gradientUnits="userSpaceOnUse" x1="1006.6973" y1="2496.5522" x2="1387.0096" y2="2496.5522">
				<stop  offset="0.0036" style="stop-color:#26264F"/>
				<stop  offset="1" style="stop-color:#444B8C"/>
			</linearGradient>
			<polygon style="fill:url(#SVGID_00000031893724488023235120000004284022020976715964_);" points="1342.026,2123.704 
				1194.809,2123.704 1006.697,2540.101 1231.613,2482.49 1141.647,2697.002 1086.44,2651.929 1094.619,2869.401 1278.641,2720.873 
				1188.675,2720.873 1387.01,2373.519 1196.853,2420.365 			"/>
			
				<linearGradient id="SVGID_00000147932811017775325480000005963136100792578967_" gradientUnits="userSpaceOnUse" x1="565.9144" y1="2406.1873" x2="1439.5894" y2="2406.1873">
				<stop  offset="0" style="stop-color:#FCB148"/>
				<stop  offset="0.0521" style="stop-color:#FDBA46"/>
				<stop  offset="0.1424" style="stop-color:#FFC244"/>
				<stop  offset="0.3183" style="stop-color:#FFC444"/>
				<stop  offset="0.4849" style="stop-color:#FDB946"/>
				<stop  offset="0.7754" style="stop-color:#F99C4D"/>
				<stop  offset="0.8658" style="stop-color:#F8924F"/>
				<stop  offset="1" style="stop-color:#F8924F"/>
			</linearGradient>
			<path style="opacity:0.3;fill:url(#SVGID_00000147932811017775325480000005963136100792578967_);" d="M1196.848,2861.706
				c-130.155,54.023-217.783,86.989-272.492,121.507H617.107c-18.285,0-35.174-9.343-44.317-25.177
				c-9.168-15.834-9.168-35.164,0-50.998l608.15-1053.27c7.501-12.966,20.173-21.812,34.536-24.607
				c-53.336,105.203-126.772,322.462,55.347,497.325C1520.814,2566.55,1490.542,2739.812,1196.848,2861.706z"/>
		</g>
		<g>
			
				<linearGradient id="SVGID_00000020372443872222844810000012294511187510874535_" gradientUnits="userSpaceOnUse" x1="2145.6868" y1="2477.2983" x2="1800.3394" y2="2933.0625" gradientTransform="matrix(-0.9871 -0.0378 0.0378 0.8891 4245.9419 -202.5192)">
				<stop  offset="0" style="stop-color:#FCB148"/>
				<stop  offset="0.0521" style="stop-color:#FDBA46"/>
				<stop  offset="0.1424" style="stop-color:#FFC244"/>
				<stop  offset="0.3183" style="stop-color:#FFC444"/>
				<stop  offset="0.4849" style="stop-color:#FDB946"/>
				<stop  offset="0.7754" style="stop-color:#F99C4D"/>
				<stop  offset="0.8658" style="stop-color:#F8924F"/>
				<stop  offset="1" style="stop-color:#F8924F"/>
			</linearGradient>
			<path style="fill:url(#SVGID_00000020372443872222844810000012294511187510874535_);" d="M2656.51,1931.56l433.208,40.606
				c38.417,7.824,102.354,94.94,91.923,125.529l-181.382,531.922l-228.241,457.575c-14.262,28.594-51.483,41.201-86.236,29.351
				L2334.7,2996.825c-31.718-10.815-112.272-74.34-105.621-103.653l166.735-429.318l180.191-493.46
				C2586.381,1941.978,2622.305,1924.593,2656.51,1931.56z"/>
			
				<linearGradient id="SVGID_00000000219720427985731220000006014715261059980450_" gradientUnits="userSpaceOnUse" x1="-916.2421" y1="2989.6194" x2="-290.5873" y2="2989.6194" gradientTransform="matrix(-0.9465 -0.3227 -0.2827 0.8293 2924.3992 -226.3029)">
				<stop  offset="0" style="stop-color:#FCB148"/>
				<stop  offset="0.0521" style="stop-color:#FDBA46"/>
				<stop  offset="0.1424" style="stop-color:#FFC244"/>
				<stop  offset="0.3183" style="stop-color:#FFC444"/>
				<stop  offset="0.4849" style="stop-color:#FDB946"/>
				<stop  offset="0.7754" style="stop-color:#F99C4D"/>
				<stop  offset="0.8658" style="stop-color:#F8924F"/>
				<stop  offset="1" style="stop-color:#F8924F"/>
			</linearGradient>
			<path style="fill:url(#SVGID_00000000219720427985731220000006014715261059980450_);" d="M2594.634,1874.125l474.2,96.584
				c38.417,7.825,61.362,38.963,50.931,69.551l-181.382,531.922l-228.241,457.575c-14.262,28.594-51.483,41.201-86.236,29.35
				l-351.082-119.717c-31.717-10.815-50.476-41.126-43.825-70.44l104.938-462.531l180.191-493.46
				C2524.505,1884.543,2560.429,1867.158,2594.634,1874.125z"/>
			
				<linearGradient id="SVGID_00000158707556133096756190000012092280504820663483_" gradientUnits="userSpaceOnUse" x1="-805.3189" y1="3423.9329" x2="-569.602" y2="2844.4624" gradientTransform="matrix(-0.9465 -0.3227 -0.2827 0.8293 2924.3992 -226.3029)">
				<stop  offset="0" style="stop-color:#FCB148"/>
				<stop  offset="0.0521" style="stop-color:#FDBA46"/>
				<stop  offset="0.1424" style="stop-color:#FFC244"/>
				<stop  offset="0.3183" style="stop-color:#FFC444"/>
				<stop  offset="0.4849" style="stop-color:#FDB946"/>
				<stop  offset="0.7754" style="stop-color:#F99C4D"/>
				<stop  offset="0.8658" style="stop-color:#F8924F"/>
				<stop  offset="1" style="stop-color:#F8924F"/>
			</linearGradient>
			<path style="fill:url(#SVGID_00000158707556133096756190000012092280504820663483_);" d="M2629.034,3044.299
				c26.004,8.817,53.768-0.623,64.433-21.989l227.549-455.789l181.089-529.973c7.796-22.816-9.334-46.168-38.011-52.055
				l-474.181-97.355c-25.584-5.253-52.588,7.786-60.345,29.067l-179.962,493.671l-104.582,462.653
				c-4.972,21.991,9.115,44.656,32.895,52.719L2629.034,3044.299z"/>
			<g>
				
					<linearGradient id="SVGID_00000088837532238759575040000001948007025302160774_" gradientUnits="userSpaceOnUse" x1="-691.1588" y1="3927.0256" x2="-444.8031" y2="4819.6191" gradientTransform="matrix(-0.9465 -0.3227 -0.2191 0.6427 3099.0671 -739.0821)">
					<stop  offset="0" style="stop-color:#444B8C"/>
					<stop  offset="0.9964" style="stop-color:#26264F"/>
				</linearGradient>
				<polygon style="fill:url(#SVGID_00000088837532238759575040000001948007025302160774_);" points="2458.651,2290.652 
					2897.203,2414.985 3020.701,2057.489 2583.099,1952.698 				"/>
				
					<linearGradient id="SVGID_00000123417658208707936990000011666678925031066777_" gradientUnits="userSpaceOnUse" x1="-704.6232" y1="4493.0796" x2="-592.201" y2="4213.5713" gradientTransform="matrix(-0.9465 -0.3227 -0.2191 0.6427 3099.0671 -739.0821)">
					<stop  offset="0" style="stop-color:#444B8C"/>
					<stop  offset="0.9964" style="stop-color:#26264F"/>
				</linearGradient>
				<polygon style="fill:url(#SVGID_00000123417658208707936990000011666678925031066777_);" points="2468.133,2286.718 
					2891.349,2406.368 3010.56,2061.696 2588.228,1960.248 				"/>
				<g style="opacity:0.3;">
					<path style="fill:#FFFFFF;" d="M2897.204,2414.985l-308.735-87.529c101.175-24.925,150.418-61.057,165.557-102.226
						c22.746-61.851-40.221-110.542-10.006-162.908c13.123-22.744,40.075-39.875,77.691-52.484l198.991,47.651L2897.204,2414.985z"
						/>
				</g>
			</g>
			
				<linearGradient id="SVGID_00000176742826833527769920000013962921723573781691_" gradientUnits="userSpaceOnUse" x1="-787.566" y1="2522.052" x2="-375.6278" y2="2522.052" gradientTransform="matrix(-0.9465 -0.3227 -0.3227 0.9465 2836.5747 30.5914)">
				<stop  offset="0" style="stop-color:#FCB148"/>
				<stop  offset="0.0521" style="stop-color:#FDBA46"/>
				<stop  offset="0.1424" style="stop-color:#FFC244"/>
				<stop  offset="0.3183" style="stop-color:#FFC444"/>
				<stop  offset="0.4849" style="stop-color:#FDB946"/>
				<stop  offset="0.7754" style="stop-color:#F99C4D"/>
				<stop  offset="0.8658" style="stop-color:#F8924F"/>
				<stop  offset="1" style="stop-color:#F8924F"/>
			</linearGradient>
			<path style="fill:url(#SVGID_00000176742826833527769920000013962921723573781691_);" d="M2375.73,2546.361
				c-37.618,105.243,17.585,217.954,125.491,251.856c110.187,34.619,232.158-26.098,270.109-135.722
				c37.738-109.01-23.12-221.892-133.627-252.106C2529.461,2380.795,2413.146,2441.687,2375.73,2546.361z"/>
			
				<linearGradient id="SVGID_00000158743821732785393430000014763809333141796225_" gradientUnits="userSpaceOnUse" x1="-626.6906" y1="2328.3989" x2="-453.8905" y2="3058.001" gradientTransform="matrix(-0.9465 -0.3227 -0.3227 0.9465 2836.5747 30.5914)">
				<stop  offset="0" style="stop-color:#FF9085"/>
				<stop  offset="1" style="stop-color:#FB6FBB"/>
			</linearGradient>
			<path style="fill:url(#SVGID_00000158743821732785393430000014763809333141796225_);" d="M2395.476,2552.158
				c-33.733,94.524,16.011,195.582,112.873,225.806c98.694,30.795,207.772-23.652,241.773-121.695
				c33.83-97.55-20.459-198.747-119.412-226.006C2533.578,2403.506,2429.045,2458.093,2395.476,2552.158z"/>
			
				<linearGradient id="SVGID_00000016051478909151152770000004548885816406069137_" gradientUnits="userSpaceOnUse" x1="1586.5701" y1="2467.0928" x2="1697.6121" y2="2935.938" gradientTransform="matrix(-1 0 0 1 4176.9204 0)">
				<stop  offset="0" style="stop-color:#FCB148"/>
				<stop  offset="0.0521" style="stop-color:#FDBA46"/>
				<stop  offset="0.1424" style="stop-color:#FFC244"/>
				<stop  offset="0.3183" style="stop-color:#FFC444"/>
				<stop  offset="0.4849" style="stop-color:#FDB946"/>
				<stop  offset="0.7754" style="stop-color:#F99C4D"/>
				<stop  offset="0.8658" style="stop-color:#F8924F"/>
				<stop  offset="1" style="stop-color:#F8924F"/>
			</linearGradient>
			<path style="fill:url(#SVGID_00000016051478909151152770000004548885816406069137_);" d="M2600.599,2497.153
				c0-13.704-11.109-24.813-24.813-24.813h-29.766c-13.704,0-24.813,11.109-24.813,24.813v188.551
				c0,13.704,11.109,24.813,24.813,24.813h29.766c13.704,0,24.813-11.109,24.813-24.813V2497.153z"/>
			<circle style="fill:#FFFFFF;" cx="2432.781" cy="2884.841" r="25.871"/>
			<circle style="fill:#FFFFFF;" cx="2352.137" cy="2862.096" r="25.871"/>
		</g>
		<g>
			<g>
				<g>
					
						<linearGradient id="SVGID_00000023977292175747216190000016448604679553966244_" gradientUnits="userSpaceOnUse" x1="1199.6183" y1="2714.9224" x2="2571.7278" y2="2714.9224">
						<stop  offset="0" style="stop-color:#AA80F9"/>
						<stop  offset="0.9964" style="stop-color:#6165D7"/>
					</linearGradient>
					<path style="fill:url(#SVGID_00000023977292175747216190000016448604679553966244_);" d="M1217.905,3066.774
						c-53.169-138.455,21.872-365.357,69.145-468.204c137.779-299.749,390.924-309.882,598.466-318.191
						c203.868-8.161,400.67-16.04,544.7,213.881c94.09,150.2,180.611,425.751,122.911,572.514
						c-60.685,154.353-229.194,34.736-629.951,32.621C1482.387,3097.069,1284.294,3239.656,1217.905,3066.774z"/>
					
						<linearGradient id="SVGID_00000052092457118971255360000011298103678066534018_" gradientUnits="userSpaceOnUse" x1="1873.7634" y1="2411.2136" x2="1868.5282" y2="2091.8728">
						<stop  offset="0" style="stop-color:#AA80F9"/>
						<stop  offset="0.9964" style="stop-color:#6165D7"/>
					</linearGradient>
					<path style="fill:url(#SVGID_00000052092457118971255360000011298103678066534018_);" d="M2077.953,2311.921
						c0,37.743-92.147,83.036-205.817,83.036c-113.67,0-205.817-45.293-205.817-83.036c0-37.743,92.147-20.871,205.817-20.871
						C1985.805,2291.05,2077.953,2274.178,2077.953,2311.921z"/>
					
						<linearGradient id="SVGID_00000060023995045658089550000003704971504035782073_" gradientUnits="userSpaceOnUse" x1="1876.2444" y1="2444.2639" x2="1874.4985" y2="2164.9321">
						<stop  offset="0" style="stop-color:#AB316D"/>
						<stop  offset="1" style="stop-color:#792D3D"/>
					</linearGradient>
					<path style="fill:url(#SVGID_00000060023995045658089550000003704971504035782073_);" d="M1796.452,2048.648
						c-31.295,0,40.945,219.893-72.826,250.085c-11.004,2.92-12.811,17.708-2.801,23.132c30.54,16.549,87.743,37.513,181.563,37.513
						c60.946,0,105.526-23.013,128.68-38.551c7.918-5.313,7.128-17.152-1.348-21.52c-35.075-18.074-83.763-75.567-69.235-245.033
						L1796.452,2048.648z"/>
					
						<linearGradient id="SVGID_00000095314823506277769120000016798316797831208119_" gradientUnits="userSpaceOnUse" x1="1853.085" y1="2044.5565" x2="1898.4559" y2="1498.3604">
						<stop  offset="0" style="stop-color:#AB316D"/>
						<stop  offset="1" style="stop-color:#792D3D"/>
					</linearGradient>
					<path style="fill:url(#SVGID_00000095314823506277769120000016798316797831208119_);" d="M1701.38,1785.016
						c0.468,2.758,9.931,203.469,55.805,303.707c13.167,28.771,78.483,25.322,120.753,21.858
						c36.715-3.009,94.27,10.392,110.479-14.955c65.166-101.91,54.12-354.325,54.12-354.325s-33.388-83.98-170.299-81.679
						C1735.327,1661.923,1701.38,1785.016,1701.38,1785.016z"/>
					
						<linearGradient id="SVGID_00000016760014740737272390000012050380962589628593_" gradientUnits="userSpaceOnUse" x1="1691.4586" y1="2031.1306" x2="1736.8295" y2="1484.9362">
						<stop  offset="0" style="stop-color:#AB316D"/>
						<stop  offset="1" style="stop-color:#792D3D"/>
					</linearGradient>
					<path style="fill:url(#SVGID_00000016760014740737272390000012050380962589628593_);" d="M1733.416,1892.812
						c0,0-28.641-33.285-55.628-37.723c-26.987-4.438-44.567,65.46-7.752,110.949c36.815,45.489,79.371,7.766,79.371,7.766
						L1733.416,1892.812z"/>
					
						<linearGradient id="SVGID_00000137849448128116529260000016176313692188972180_" gradientUnits="userSpaceOnUse" x1="2036.8524" y1="2059.8213" x2="2082.2234" y2="1513.6265">
						<stop  offset="0" style="stop-color:#AB316D"/>
						<stop  offset="1" style="stop-color:#792D3D"/>
					</linearGradient>
					<path style="fill:url(#SVGID_00000137849448128116529260000016176313692188972180_);" d="M2012.509,1892.812
						c0,0,28.641-33.285,55.628-37.723c26.987-4.438,44.567,65.46,7.752,110.949c-36.815,45.489-79.371,7.766-79.371,7.766
						L2012.509,1892.812z"/>
					
						<linearGradient id="SVGID_00000170973751328031786530000006380005564101137581_" gradientUnits="userSpaceOnUse" x1="1841.0907" y1="1781.2085" x2="1961.4982" y2="1407.7716">
						<stop  offset="0" style="stop-color:#311944"/>
						<stop  offset="1" style="stop-color:#6B3976"/>
					</linearGradient>
					<path style="fill:url(#SVGID_00000170973751328031786530000006380005564101137581_);" d="M1710.995,1890.311
						c3.606,6.616,7.737,12.774,10.527,12.047c11.574-3.016-33.069-115.811,8.052-155.305c21.258-20.417,45.205-1.81,132.296-5.752
						c87.703-3.969,110.138-24.952,136.648-8.879c24.152,14.643,45.767,56.453,27.86,180.289c4.985-1.151,9.97-2.301,14.955-3.451
						c-6.715-40.561,0.614-66.155,8.995-82.284c6.114-11.767,17.176-26.942,16.315-48.862c-0.533-13.586-5.035-14.194-5.776-25.32
						c-2.171-32.616,35.042-41.393,36.837-73.615c1.382-24.805-20.017-30.441-16.106-56.37c3.326-22.049,20.036-26.17,17.393-42.1
						c-2.853-17.193-25.235-29.983-40.949-34.444c-16.024-4.55-21.818,0.499-31.211-5.981
						c-15.181-10.473-7.886-29.067-18.859-35.967c-19.539-12.287-58.383,36.793-83.491,24.571
						c-15.202-7.4-9.348-29.475-22.804-34.83c-26.001-10.347-71.944,62.493-90.425,52.823c-8.849-4.63-0.316-22.372-12.725-35.435
						c-14.572-15.34-49.555-15.313-65.503,0.923c-14.867,15.135-2.243,33.209-17.981,52.385
						c-14.132,17.219-30.455,10.133-46.404,23.931c-27.096,23.44-17.663,76.484-14.298,95.411
						c11.587,65.164,47.667,78.345,39.569,122.777c-2.072,11.366-6.894,24.007-3.451,42.565
						C1693.838,1867.645,1703.283,1881.371,1710.995,1890.311z"/>
					<g style="opacity:0.3;">
						
							<linearGradient id="SVGID_00000112599732916457093910000012117558197687755413_" gradientUnits="userSpaceOnUse" x1="1841.0986" y1="1781.2109" x2="1961.5059" y2="1407.7748">
							<stop  offset="0" style="stop-color:#311944"/>
							<stop  offset="1" style="stop-color:#6B3976"/>
						</linearGradient>
						<path style="fill:url(#SVGID_00000112599732916457093910000012117558197687755413_);" d="M2044.247,1749.569
							c-3.202-32.037,21.619-46.945,17.45-69.801c-3.348-18.359-24.117-34.865-43.626-38.391
							c-41.615-7.52-68.555,53.757-109.937,47.116c-31.998-5.135-28.45-43.786-64.566-59.331
							c-57.243-24.639-117.243,50.471-155.308,29.666c-11.44-6.253-23.008-22.321-23.83-65.912
							c-21.829,25.072-13.263,73.317-10.088,91.182c11.587,65.164,47.668,78.345,39.57,122.777
							c-2.072,11.366-6.894,24.007-3.452,42.565c3.378,18.206,12.822,31.932,20.534,40.872c3.606,6.615,7.737,12.774,10.527,12.047
							c11.574-3.016-33.069-115.811,8.053-155.305c21.258-20.417,45.206-1.81,132.296-5.752
							c87.702-3.969,110.138-24.952,136.648-8.879c24.152,14.644,45.767,56.453,27.86,180.29c4.984-1.15,9.97-2.301,14.955-3.451
							c-6.715-40.561,0.614-66.155,8.994-82.284c2.52-4.849,5.873-10.289,8.892-16.528c-0.638-10.672-2.451-22.389-6.249-34.703
							C2048.518,1761.305,2045.277,1759.876,2044.247,1749.569z"/>
					</g>
				</g>
				<g>
					
						<linearGradient id="SVGID_00000149363213809740027370000003900537777123134856_" gradientUnits="userSpaceOnUse" x1="1714.8318" y1="1168.4988" x2="2021.705" y2="1995.7233">
						<stop  offset="0" style="stop-color:#FFC444"/>
						<stop  offset="0.9964" style="stop-color:#F36F56"/>
					</linearGradient>
					<path style="fill:url(#SVGID_00000149363213809740027370000003900537777123134856_);" d="M2043.13,1425.354h-335.44
						c-37.779,0-68.406,30.626-68.406,68.406v227.539h472.251v-227.539C2111.535,1455.98,2080.909,1425.354,2043.13,1425.354z"/>
					
						<linearGradient id="SVGID_00000166675078445173398670000009152478495789286840_" gradientUnits="userSpaceOnUse" x1="1829.7715" y1="1429.5284" x2="2064.9656" y2="2120.0352">
						<stop  offset="0" style="stop-color:#FFC444"/>
						<stop  offset="0.9964" style="stop-color:#F36F56"/>
					</linearGradient>
					<path style="fill:url(#SVGID_00000166675078445173398670000009152478495789286840_);" d="M1941.088,1721.298h-131.356v-313.513
						c0-6.784,5.5-12.284,12.284-12.284h106.787c6.785,0,12.284,5.5,12.284,12.284V1721.298z"/>
					
						<linearGradient id="SVGID_00000160903787096586274100000007560281073888976033_" gradientUnits="userSpaceOnUse" x1="1612.4636" y1="1746.4639" x2="2138.3562" y2="1746.4639">
						<stop  offset="0" style="stop-color:#FFC444"/>
						<stop  offset="0.9964" style="stop-color:#F36F56"/>
					</linearGradient>
					<path style="fill:url(#SVGID_00000160903787096586274100000007560281073888976033_);" d="M2130.075,1775.049h-509.33
						c-4.574,0-8.281-3.708-8.281-8.281v-40.608c0-4.574,3.708-8.281,8.281-8.281h509.33c4.573,0,8.281,3.708,8.281,8.281v40.608
						C2138.356,1771.342,2134.649,1775.049,2130.075,1775.049z"/>
					
						<linearGradient id="SVGID_00000139257921120053675000000017229277270437038235_" gradientUnits="userSpaceOnUse" x1="1811.3864" y1="1599.6079" x2="1947.6871" y2="1967.028">
						<stop  offset="0" style="stop-color:#FFC444"/>
						<stop  offset="0.9964" style="stop-color:#F36F56"/>
					</linearGradient>
					<path style="fill:url(#SVGID_00000139257921120053675000000017229277270437038235_);" d="M1646.432,1771.677
						c9.895,45.124,108.624,80.567,228.979,80.567c120.354,0,219.083-35.443,228.977-80.567H1646.432z"/>
				</g>
			</g>
			
				<linearGradient id="SVGID_00000059992571068401480600000011419383791886888869_" gradientUnits="userSpaceOnUse" x1="1544.3337" y1="2467.1621" x2="1665.1484" y2="2467.1621">
				<stop  offset="0.0036" style="stop-color:#26264F"/>
				<stop  offset="1" style="stop-color:#444B8C"/>
			</linearGradient>
			<path style="fill:url(#SVGID_00000059992571068401480600000011419383791886888869_);" d="M1665.148,2613.788
				c0,30.545-24.762,55.308-55.308,55.308h-10.199c-30.546,0-55.308-24.762-55.308-55.308v-293.251
				c0-30.546,24.762-55.308,55.308-55.308h10.199c30.546,0,55.308,24.762,55.308,55.308V2613.788z"/>
			
				<linearGradient id="SVGID_00000032608929623365616530000015310581705166200216_" gradientUnits="userSpaceOnUse" x1="2100.0811" y1="2467.1621" x2="2220.8958" y2="2467.1621">
				<stop  offset="0.0036" style="stop-color:#26264F"/>
				<stop  offset="1" style="stop-color:#444B8C"/>
			</linearGradient>
			<path style="fill:url(#SVGID_00000032608929623365616530000015310581705166200216_);" d="M2220.896,2613.788
				c0,30.545-24.762,55.308-55.308,55.308h-10.199c-30.546,0-55.308-24.762-55.308-55.308v-293.251
				c0-30.546,24.762-55.308,55.308-55.308h10.199c30.546,0,55.308,24.762,55.308,55.308V2613.788z"/>
			
				<linearGradient id="SVGID_00000111879068878878197540000000519427394817611448_" gradientUnits="userSpaceOnUse" x1="1451.134" y1="2874.4802" x2="2307.1919" y2="2874.4802">
				<stop  offset="0.0036" style="stop-color:#26264F"/>
				<stop  offset="1" style="stop-color:#444B8C"/>
			</linearGradient>
			<path style="fill:url(#SVGID_00000111879068878878197540000000519427394817611448_);" d="M2307.192,3097.046
				c0,30.546-24.762,55.308-55.308,55.308h-745.443c-30.546,0-55.308-24.762-55.308-55.308v-445.132
				c0-30.546,24.762-55.308,55.308-55.308h745.443c30.545,0,55.308,24.762,55.308,55.308V3097.046z"/>
			
				<linearGradient id="SVGID_00000011732063518994261990000008112488076127532200_" gradientUnits="userSpaceOnUse" x1="1802.1982" y1="2846.5947" x2="1507.2239" y2="3229.1389">
				<stop  offset="0.0036" style="stop-color:#26264F"/>
				<stop  offset="0.8332" style="stop-color:#3F4582"/>
				<stop  offset="1" style="stop-color:#444B8C"/>
			</linearGradient>
			<path style="fill:url(#SVGID_00000011732063518994261990000008112488076127532200_);" d="M1874.164,2877.598
				c174.684,12.649,188.006-170.532,188.006-170.532h-347.964C1714.206,2707.066,1707.089,2865.499,1874.164,2877.598z"/>
		</g>
	</g>
</g>
</svg>
